<svg xmlns="http://www.w3.org/2000/svg" width="16.159" height="20.608" viewBox="0 0 16.159 20.608"><path d="M115.936,200.648a.717.717,0,0,0-.77-.648h-7.936a.658.658,0,1,0,0,1.3h7.936A.717.717,0,0,0,115.936,200.648Z" transform="translate(-103.096 -191.817)" fill="#fff"/><path d="M107.107,280a.648.648,0,0,0,0,1.3h4.053a.648.648,0,0,0,0-1.3Z" transform="translate(-103.109 -268.544)" fill="#fff"/><path d="M32.418,19H29.755a1.6,1.6,0,0,1-1.592-1.61V3.22a1.6,1.6,0,0,1,1.592-1.61h9.789a1.6,1.6,0,0,1,1.592,1.61V8.171a.8.8,0,1,0,1.592,0V3.22A3.206,3.206,0,0,0,39.544,0H29.755A3.206,3.206,0,0,0,26.57,3.22V17.388a3.206,3.206,0,0,0,3.185,3.22h2.663a.805.805,0,0,0,0-1.61Z" transform="translate(-26.57 0)" fill="#fff"/><path d="M5.848,19H3.185a1.6,1.6,0,0,1-1.592-1.61V3.22A1.6,1.6,0,0,1,3.185,1.61h9.789a1.6,1.6,0,0,1,1.592,1.61V8.171a.8.8,0,1,0,1.592,0V3.22A3.206,3.206,0,0,0,12.974,0H3.185A3.206,3.206,0,0,0,0,3.22V17.388a3.206,3.206,0,0,0,3.185,3.22H5.848a.805.805,0,0,0,0-1.61Z" transform="translate(16.159 20.608) rotate(180)" fill="#fff"/><path d="M115.165,120h-7.936a.658.658,0,1,0,0,1.3h7.936a.658.658,0,1,0,0-1.3Z" transform="translate(-103.096 -115.09)" fill="#fff"/></svg>