<svg xmlns="http://www.w3.org/2000/svg" width="17.675" height="21.185" viewBox="0 0 17.675 21.185"><path d="M92.139,10.191A4.948,4.948,0,0,0,95.751,8.7a4.925,4.925,0,0,0,1.5-3.6,4.925,4.925,0,0,0-1.5-3.6,5.115,5.115,0,0,0-7.223,0,4.924,4.924,0,0,0-1.5,3.6,4.925,4.925,0,0,0,1.5,3.6A4.95,4.95,0,0,0,92.139,10.191ZM89.407,2.369a3.87,3.87,0,0,1,5.465,0A3.679,3.679,0,0,1,96,5.1a3.679,3.679,0,0,1-1.132,2.726,3.87,3.87,0,0,1-5.465,0A3.678,3.678,0,0,1,88.274,5.1a3.679,3.679,0,0,1,1.133-2.726Zm0,0" transform="translate(-83.436 0)" fill="#fff"/><path d="M17.632,253.365a12.569,12.569,0,0,0-.172-1.337,10.52,10.52,0,0,0-.329-1.344,6.635,6.635,0,0,0-.553-1.253,4.726,4.726,0,0,0-.834-1.086,3.679,3.679,0,0,0-1.2-.752,4.147,4.147,0,0,0-1.53-.276,1.554,1.554,0,0,0-.829.351c-.249.162-.539.349-.864.556a4.956,4.956,0,0,1-1.118.492,4.347,4.347,0,0,1-2.734,0,4.939,4.939,0,0,1-1.117-.492c-.321-.205-.612-.392-.865-.556a1.552,1.552,0,0,0-.829-.351,4.142,4.142,0,0,0-1.53.277,3.677,3.677,0,0,0-1.2.752,4.727,4.727,0,0,0-.834,1.086,6.646,6.646,0,0,0-.553,1.254,10.543,10.543,0,0,0-.329,1.344,12.483,12.483,0,0,0-.172,1.337c-.028.4-.042.824-.042,1.249a3.51,3.51,0,0,0,1.045,2.658,3.764,3.764,0,0,0,2.692.98h10.2a3.764,3.764,0,0,0,2.692-.98,3.509,3.509,0,0,0,1.045-2.658c0-.426-.015-.847-.043-1.25Zm-1.858,3.009a2.534,2.534,0,0,1-1.836.639H3.737a2.534,2.534,0,0,1-1.836-.639,2.292,2.292,0,0,1-.659-1.76c0-.4.013-.788.039-1.164a11.259,11.259,0,0,1,.155-1.2,9.3,9.3,0,0,1,.289-1.185,5.41,5.41,0,0,1,.45-1.019,3.5,3.5,0,0,1,.613-.8,2.44,2.44,0,0,1,.8-.5,2.859,2.859,0,0,1,.978-.188c.043.023.121.067.246.149.255.166.549.356.875.563a6.153,6.153,0,0,0,1.4.626,5.588,5.588,0,0,0,3.5,0,6.16,6.16,0,0,0,1.4-.627c.333-.212.619-.4.874-.563.125-.082.2-.126.246-.149a2.861,2.861,0,0,1,.978.188,2.443,2.443,0,0,1,.8.5,3.493,3.493,0,0,1,.613.8,5.392,5.392,0,0,1,.45,1.019,9.278,9.278,0,0,1,.29,1.185,11.353,11.353,0,0,1,.155,1.2h0c.026.374.04.766.04,1.163a2.292,2.292,0,0,1-.659,1.759Zm0,0" transform="translate(0 -237.068)" fill="#fff"/></svg>