<svg xmlns="http://www.w3.org/2000/svg" width="21.027" height="19.358" viewBox="0 0 21.027 19.358"><path d="M20.951,15.315,19.222,9.562a1.8,1.8,0,0,0-2.236-1.2l-1.332.4a1.785,1.785,0,0,0,.28-1.047l-.278-6A1.8,1.8,0,0,0,13.78,0l-6,.278a1.8,1.8,0,0,0-1.71,1.877l.278,6A1.794,1.794,0,0,0,6.4,8.52l-3.8-.4a1.8,1.8,0,0,0-1.972,1.6L.01,15.7a1.8,1.8,0,0,0,1.6,1.972l5.975.623a1.838,1.838,0,0,0,.19.01,1.8,1.8,0,0,0,1.782-1.609l.461-4.418c0,.016.008.032.013.048l1.729,5.753a1.8,1.8,0,0,0,1.717,1.28,1.8,1.8,0,0,0,.519-.077l5.753-1.728a1.8,1.8,0,0,0,1.2-2.236ZM7.445,1.693a.56.56,0,0,1,.39-.183l6-.278h.027a.563.563,0,0,1,.562.537l.278,6a.564.564,0,0,1-.536.589l-6,.278A.564.564,0,0,1,7.577,8.1L7.3,2.1a.56.56,0,0,1,.146-.406Zm1.508,8.9-.623,5.975a.563.563,0,0,1-.619.5l-5.975-.623a.564.564,0,0,1-.5-.619l.623-5.975a.564.564,0,0,1,.619-.5l5.975.623a.563.563,0,0,1,.5.619Zm1.2.4.029-.274a1.787,1.787,0,0,0-.154-.936l2.626-.122-1.418.426a1.791,1.791,0,0,0-1.082.905Zm9.243,5.378L13.64,18.1a.564.564,0,0,1-.7-.377L11.21,11.97a.564.564,0,0,1,.377-.7L17.341,9.54a.567.567,0,0,1,.163-.024.564.564,0,0,1,.539.4l1.729,5.753a.564.564,0,0,1-.377.7Zm0,0" transform="translate(0 0.001)" fill="#fff"/><path d="M196.63,51.969h.03a.616.616,0,0,0,.586-.645l-.069-1.436,1.455-.07a.616.616,0,0,0-.059-1.23l-1.813.087a.874.874,0,0,0-.831.914l.086,1.794a.616.616,0,0,0,.615.587Zm0,0" transform="translate(-187.881 -46.592)" fill="#fff"/><path d="M58.659,247.154l-1.806-.184a.873.873,0,0,0-.958.78l-.182,1.787a.616.616,0,0,0,.55.675.594.594,0,0,0,.063,0,.616.616,0,0,0,.612-.554l.145-1.43,1.449.148a.616.616,0,0,0,.125-1.225Zm0,0" transform="translate(-53.424 -236.823)" fill="#fff"/><path d="M299.89,270.416l-1.737.524a.874.874,0,0,0-.584,1.089l.519,1.719a.616.616,0,0,0,1.179-.356l-.415-1.376,1.395-.421a.616.616,0,1,0-.356-1.179Zm0,0" transform="translate(-285.311 -259.284)" fill="#fff"/></svg>