<svg xmlns="http://www.w3.org/2000/svg" width="25" height="16.42" viewBox="0 0 25 16.42"><g transform="translate(0 0)"><path d="M24.987,66.465A23.337,23.337,0,0,0,24.3,61.95a17.329,17.329,0,0,0-1.4-3.8c-2.18-3.83-4.546-3.238-7.38-2.491a20.283,20.283,0,0,1-2.865.561h-.311A20.283,20.283,0,0,1,9.48,55.66c-2.834-.716-5.2-1.339-7.38,2.522a15.874,15.874,0,0,0-1.4,3.8A23.336,23.336,0,0,0,.014,66.5a8.485,8.485,0,0,0,.436,3.55,2.36,2.36,0,0,0,1.495,1.4,3.045,3.045,0,0,0,1.993-.218A14.636,14.636,0,0,0,7.923,68.4a6.875,6.875,0,0,1,4.577-1.4,6.875,6.875,0,0,1,4.577,1.4,14.636,14.636,0,0,0,3.986,2.834,3.257,3.257,0,0,0,1.993.218,2.327,2.327,0,0,0,1.495-1.432A8.326,8.326,0,0,0,24.987,66.465Zm-1.495,3.114a1.235,1.235,0,0,1-.747.778,2.15,2.15,0,0,1-1.277-.156,12.7,12.7,0,0,1-3.612-2.585A7.775,7.775,0,0,0,12.5,65.842a8.211,8.211,0,0,0-5.387,1.713A12.938,12.938,0,0,1,3.5,70.139a1.931,1.931,0,0,1-1.277.156,1.235,1.235,0,0,1-.747-.778,7.363,7.363,0,0,1-.311-2.989,21.479,21.479,0,0,1,.654-4.3,14.858,14.858,0,0,1,1.308-3.519C4.84,55.629,6.833,56.127,9.2,56.75a18.266,18.266,0,0,0,3.052.592h.467A18.04,18.04,0,0,0,15.8,56.75c2.367-.592,4.359-1.121,6.072,1.962a14.358,14.358,0,0,1,1.308,3.519,23.569,23.569,0,0,1,.654,4.3A7.205,7.205,0,0,1,23.492,69.579Z" transform="translate(0 -55.109)" fill="#fff"/></g><g transform="translate(3.266 3.072)"><g transform="translate(0 0)"><path d="M47.878,97.191a1.919,1.919,0,0,0-1.137-.537,1.8,1.8,0,0,0-.505-1.105l-.032-.032a1.789,1.789,0,0,0-1.295-.537,1.865,1.865,0,0,0-1.295.537,1.836,1.836,0,0,0-.537,1.137,1.881,1.881,0,0,0-1.137.505l-.032.032a1.789,1.789,0,0,0-.537,1.295,1.864,1.864,0,0,0,.537,1.295,1.76,1.76,0,0,0,1.168.537,1.685,1.685,0,0,0,.537,1.137,1.789,1.789,0,0,0,1.295.537,1.864,1.864,0,0,0,1.295-.537,1.919,1.919,0,0,0,.537-1.137,1.685,1.685,0,0,0,1.137-.537,1.789,1.789,0,0,0,.537-1.295A1.865,1.865,0,0,0,47.878,97.191Zm-.789,1.768a.643.643,0,0,1-.474.189h-.442a.6.6,0,0,0-.6.6v.411a.663.663,0,1,1-1.326,0v-.442a.6.6,0,0,0-.6-.6H43.2a.648.648,0,0,1-.474-1.105l.032-.032a.755.755,0,0,1,.442-.158h.442a.6.6,0,0,0,.6-.6v-.442a.67.67,0,0,1,1.137-.474l.032.032a.754.754,0,0,1,.158.442v.442a.6.6,0,0,0,.6.6h.442a.67.67,0,0,1,.474,1.137Z" transform="translate(-41.373 -94.981)" fill="#fff"/></g></g><g transform="translate(16.806 3.253)"><g transform="translate(0 0)"><circle cx="1.105" cy="1.105" r="1.105" fill="#fff"/></g></g><g transform="translate(16.806 7.665)"><circle cx="1.105" cy="1.105" r="1.105" fill="#fff"/></g><g transform="translate(14.598 5.459)"><g transform="translate(0 0)"><circle cx="1.105" cy="1.105" r="1.105" fill="#fff"/></g></g><g transform="translate(19.013 5.459)"><g transform="translate(0 0)"><circle cx="1.105" cy="1.105" r="1.105" fill="#fff"/></g></g></svg>