<svg xmlns="http://www.w3.org/2000/svg" width="25" height="24.274" viewBox="0 0 25 24.274"><g transform="translate(0)"><path d="M248.356,202.657h-9.341a.921.921,0,0,1-.921-.921v-9.115a.921.921,0,0,1,.921-.921h9.341a.921.921,0,0,1,.921.921v9.115A.921.921,0,0,1,248.356,202.657Zm-8.42-1.841h7.5v-7.273h-7.5Z" transform="translate(-238.094 -178.383)" fill="#fff"/><path d="M400.809,202.657h-9.341a.921.921,0,0,1-.921-.921v-9.115a.921.921,0,0,1,.921-.921h9.341a.921.921,0,0,1,.921.921v9.115A.921.921,0,0,1,400.809,202.657Zm-8.42-1.841h7.5v-7.273h-7.5Z" transform="translate(-376.729 -178.383)" fill="#fff"/><path d="M262.181,55.7H239.007a.917.917,0,0,1-.913-.921V45.664a.917.917,0,0,1,.913-.921h23.174a.917.917,0,0,1,.913.921v9.115A.917.917,0,0,1,262.181,55.7ZM239.92,53.858h21.349V46.584H239.92Z" transform="translate(-238.094 -44.743)" fill="#fff"/></g></svg>