<svg width="19" height="20" viewBox="0 0 19 20" fill="none" xmlns="http://www.w3.org/2000/svg">
<path d="M16.1612 0.882324H2.14974C1.00077 0.882324 0.0668945 1.8162 0.0668945 2.96517V16.9767C0.0668945 18.1256 1.00077 19.0595 2.14974 19.0595H16.1612C17.3102 19.0595 18.2441 18.1256 18.2441 16.9767V2.96517C18.2441 1.8162 17.3102 0.882324 16.1612 0.882324V0.882324ZM13.1317 10.7283H9.91282V13.9472C9.91282 14.3653 9.5743 14.7045 9.15549 14.7045C8.73667 14.7045 8.39815 14.3653 8.39815 13.9472V10.7283H5.17923C4.76041 10.7283 4.42189 10.389 4.42189 9.97092C4.42189 9.55279 4.76041 9.21358 5.17923 9.21358H8.39815V5.99466C8.39815 5.57653 8.73667 5.23732 9.15549 5.23732C9.5743 5.23732 9.91282 5.57653 9.91282 5.99466V9.21358H13.1317C13.5506 9.21358 13.8891 9.55279 13.8891 9.97092C13.8891 10.389 13.5506 10.7283 13.1317 10.7283Z" fill="#060606"/>
</svg>
