<svg xmlns="http://www.w3.org/2000/svg" width="80" height="61.987" viewBox="0 0 80 61.987"><g transform="translate(-241 -240.332)"><path d="M73.568,59.377l1.314-12.822a6.266,6.266,0,0,0-3.051-3.74,7.094,7.094,0,0,0-5-.972l-.28.034-3.779.452c.677-1.059.628-.924.565-2.273l-.976-6.306a6.306,6.306,0,0,0-6.59-6.009l-28.454-6.41a6.306,6.306,0,0,0-6.006,6.592l.976,6.307a6.3,6.3,0,0,0,.192,1.277L9.149,34.115a6.305,6.305,0,0,0-6.925,5.618L.035,68.107a6.306,6.306,0,0,0,5.616,6.927l20.98-5.2a6.447,6.447,0,0,0,.666.034,6.305,6.305,0,0,0,6.258-5.653L35.175,48.7c.015.056.029.112.046.168l6.07,16.516a6.291,6.291,0,0,0,7.852,4.225l20.2-2.378a6.316,6.316,0,0,0,4.224-7.856ZM26.145,26.3a1.965,1.965,0,0,1,1.371-.644l28.455,6.41.094,0a1.979,1.979,0,0,1,1.974,1.887l.976,6.307c.051,1.09-1.306.818-2.4.869l-12.171-2.53L28.559,35.506c-1.092.048-1.9-.388-1.952-1.478l-.976-6.306a1.969,1.969,0,0,1,.514-1.425Zm5.3,16.485L29.252,63.77a1.978,1.978,0,0,1-2.172,1.763L6.1,70.73a1.98,1.98,0,0,1-1.762-2.174L6.527,40.182A1.979,1.979,0,0,1,8.7,38.42l20.98,2.19a1.978,1.978,0,0,1,1.762,2.174Zm4.2,1.411.1-.962a6.278,6.278,0,0,0-.54-3.288l5.346,1.18-1.245.4a5.332,5.332,0,0,0-3.663,2.666ZM68.1,63.087,47.9,65.465a1.979,1.979,0,0,1-2.463-1.326L39.365,47.624a1.981,1.981,0,0,1,1.325-2.464l27.585,1.314a1.99,1.99,0,0,1,.572-.085,1.981,1.981,0,0,1,1.892,1.41L69.424,60.622A1.982,1.982,0,0,1,68.1,63.087Zm0,0" transform="translate(241 219.001)" fill="#fff"/><path d="M63.314,247.424l-4.393-.447a2.125,2.125,0,0,0-2.33,1.9l1.6,4.346a1.5,1.5,0,0,0,1.339,1.642,1.458,1.458,0,0,0,.154.008,1.5,1.5,0,0,0,1.489-1.347l-1.693-3.479,3.526.359a1.5,1.5,0,0,0,.3-2.982Zm0,0" transform="translate(193.048 13.242)" fill="#fff"/><path d="M4.52.051l-3.329,1A1.675,1.675,0,0,0,.072,3.142l1.4,2.891a1.18,1.18,0,0,0,2.26-.682L2.53,3.117,5.2,2.311A1.18,1.18,0,1,0,4.52.051Zm0,0" transform="translate(286.849 282.031) rotate(-90)" fill="#fff"/><circle cx="1.838" cy="1.838" r="1.838" transform="translate(252.025 278.48)" fill="#fff"/><circle cx="1.47" cy="1.47" r="1.47" transform="translate(263.886 273.31)" fill="#fff"/><circle cx="1.47" cy="1.47" r="1.47" transform="translate(296.369 268.142)" fill="#fff"/><circle cx="1.838" cy="1.838" r="1.838" transform="translate(301.54 275.527)" fill="#fff"/><g transform="translate(246.742 255.786)"><rect width="2.205" height="1.47" transform="translate(45.186 34.545)" fill="#fff"/><rect width="2.205" height="1.47" transform="translate(8.09 34.022) rotate(8)" fill="#fff"/><path d="M7.465.7A2.524,2.524,0,0,0,3.977.7L.724,3.955a2.462,2.462,0,0,0,0,3.486L3.977,10.7a2.466,2.466,0,0,0,3.487,0l3.255-3.255a2.463,2.463,0,0,0,0-3.487ZM9.372,6.093,6.115,9.349a.571.571,0,0,1-.789,0L2.07,6.093a.558.558,0,0,1,0-.79L5.327,2.047h0a.558.558,0,0,1,.789,0L9.373,5.3a.558.558,0,0,1,0,.79Z" transform="translate(34.766 30.87) rotate(14)" fill="#fff"/><path d="M7.465.7A2.524,2.524,0,0,0,3.977.7L.724,3.955a2.462,2.462,0,0,0,0,3.486L3.977,10.7a2.466,2.466,0,0,0,3.487,0l3.255-3.255a2.463,2.463,0,0,0,0-3.487ZM9.372,6.093,6.115,9.349a.571.571,0,0,1-.789,0L2.07,6.093a.558.558,0,0,1,0-.79L5.327,2.047h0a.558.558,0,0,1,.789,0L9.373,5.3a.558.558,0,0,1,0,.79Z" transform="matrix(0.799, 0.602, -0.602, 0.799, 29.671, 30.526)" fill="#fff"/><path d="M8.648,0H3.706A3.711,3.711,0,0,0,0,3.706V8.648a3.711,3.711,0,0,0,3.706,3.706H8.648a3.711,3.711,0,0,0,3.706-3.706V3.706A3.711,3.711,0,0,0,8.648,0ZM9.883,8.648A1.237,1.237,0,0,1,8.648,9.883H3.706A1.237,1.237,0,0,1,2.471,8.648V3.706A1.237,1.237,0,0,1,3.706,2.471H8.648A1.237,1.237,0,0,1,9.883,3.706Z" transform="matrix(0.951, -0.309, 0.309, 0.951, 48.853, 33.218)" fill="#fff"/><rect width="1.47" height="1.47" transform="translate(29.676 29.4)" fill="#fff"/><rect width="1.47" height="1.47" transform="translate(14.4 37.126) rotate(8)" fill="#fff"/><rect width="2.205" height="2.205" transform="translate(45.924 0)" fill="#fff"/><path d="M269.721,211.615a2.447,2.447,0,0,0,1.743-.722l3.255-3.255a2.463,2.463,0,0,0,0-3.487l-3.255-3.255a2.524,2.524,0,0,0-3.488,0l-3.254,3.255a2.462,2.462,0,0,0,0,3.486l3.254,3.255A2.448,2.448,0,0,0,269.721,211.615Zm-3.814-5.721a.555.555,0,0,1,.164-.395l3.255-3.256h0a.558.558,0,0,1,.789,0l3.256,3.256a.558.558,0,0,1,0,.79l-3.256,3.256a.571.571,0,0,1-.789,0l-3.256-3.256A.558.558,0,0,1,265.907,205.894Z" transform="translate(-201.185 -167.12)" fill="#fff"/><path d="M269.721,211.615a2.447,2.447,0,0,0,1.743-.722l3.255-3.255a2.463,2.463,0,0,0,0-3.487l-3.255-3.255a2.524,2.524,0,0,0-3.488,0l-3.254,3.255a2.462,2.462,0,0,0,0,3.486l3.254,3.255A2.448,2.448,0,0,0,269.721,211.615Zm-3.814-5.721a.555.555,0,0,1,.164-.395l3.255-3.256h0a.558.558,0,0,1,.789,0l3.256,3.256a.558.558,0,0,1,0,.79l-3.256,3.256a.571.571,0,0,1-.789,0l-3.256-3.256A.558.558,0,0,1,265.907,205.894Z" transform="translate(-264 -167.12)" fill="#fff"/><rect width="2.205" height="2.205" transform="translate(47.401 40.425)" fill="#fff"/><rect width="2.205" height="2.205" transform="translate(20.077 38.955)" fill="#fff"/><rect width="2.205" height="2.205" transform="translate(10.911 40.356) rotate(8)" fill="#fff"/><rect width="2.205" height="1.47" transform="translate(57.74 41.16)" fill="#fff"/><rect width="1.47" height="1.47" transform="translate(65.158 32.34)" fill="#fff"/></g></g></svg>