<svg xmlns="http://www.w3.org/2000/svg" width="70" height="70" viewBox="0 0 70 70"><g transform="translate(5 4.5)"><circle cx="35" cy="35" r="35" transform="translate(-5 -4.5)" fill="#c7c8cb" opacity="0.4"/><path d="M30,0A30,30,0,1,0,60,30,30.034,30.034,0,0,0,30,0Z" transform="translate(0 0.5)" fill="#abc76e"/><g transform="translate(27.206 47.245) rotate(-128)"><g transform="translate(3.525 18.12)"><g transform="translate(0)"><path d="M2.345.729A5.524,5.524,0,0,1,1.763.271,1.056,1.056,0,1,0,.35,1.841a7.618,7.618,0,0,0,.807.634A1.056,1.056,0,1,0,2.345.729Z" fill="#191d1f"/></g></g><g transform="translate(0 0)"><g transform="translate(0 0)"><path d="M22.177,11.322A11.239,11.239,0,0,0,11.049,0,11.192,11.192,0,0,0,.007,9.938a1.056,1.056,0,0,0,2.1.249,9.078,9.078,0,0,1,8.943-8.075,9.125,9.125,0,0,1,9.016,9.21,9.183,9.183,0,0,1-6.777,8.91l1.276-1.821A1.056,1.056,0,1,0,12.834,17.2l-2.651,3.782,0,.008a1.05,1.05,0,0,0-.065.117c-.011.022-.026.043-.035.065s-.02.062-.03.093a1.064,1.064,0,0,0-.032.1c0,.024-.005.049-.009.072a1.057,1.057,0,0,0-.014.135s0,.008,0,.013c0,.025.006.048.007.072a1.01,1.01,0,0,0,.012.12c.006.033.016.065.026.1s.018.066.031.1a.991.991,0,0,0,.045.092c.015.03.03.06.048.089s.041.056.062.083.04.052.063.077a1.042,1.042,0,0,0,.088.079c.018.015.033.033.052.047l3.71,2.7a1.056,1.056,0,1,0,1.243-1.708L13.794,22.28A11.3,11.3,0,0,0,22.177,11.322Z" fill="#191d1f"/></g></g><g transform="translate(0.53 13.776)"><g transform="translate(0 0)"><path d="M2.428,1.656c0-.018-.012-.036-.017-.054a1.021,1.021,0,0,0-.053-.154c0-.006,0-.013-.006-.018a6.741,6.741,0,0,1-.3-.711,1.056,1.056,0,0,0-2,.68,8.7,8.7,0,0,0,.354.869s0,.007.006.011a1.04,1.04,0,0,0,.135.236c.013.017.027.033.042.05a1.049,1.049,0,0,0,.182.171c.008.006.015.013.023.019a1.071,1.071,0,0,0,.245.121c.022.008.044.014.067.021a1.047,1.047,0,0,0,.281.043h0a1.059,1.059,0,0,0,1.035-.846,1.036,1.036,0,0,0,0-.436Z" fill="#191d1f"/></g></g></g></g></svg>