<svg width="35" height="35" viewBox="0 0 35 35" fill="none" xmlns="http://www.w3.org/2000/svg">
<circle cx="17.5" cy="17.5" r="17.5" fill="#fff"/>
<path d="M23.7214 11.2786C23.35 10.9071 22.7929 10.9071 22.4214 11.2786L17.5 16.2L12.5786 11.2786C12.2071 10.9071 11.65 10.9071 11.2786 11.2786C10.9071 11.65 10.9071 12.2071 11.2786 12.5786L16.2 17.5L11.2786 22.4214C10.9071 22.7929 10.9071 23.35 11.2786 23.7214C11.4643 23.9071 11.65 24 11.9286 24C12.2071 24 12.3929 23.9071 12.5786 23.7214L17.5 18.8L22.4214 23.7214C22.6071 23.9071 22.8857 24 23.0714 24C23.2571 24 23.5357 23.9071 23.7214 23.7214C24.0929 23.35 24.0929 22.7929 23.7214 22.4214L18.8 17.5L23.7214 12.5786C24.0929 12.2071 24.0929 11.65 23.7214 11.2786Z" fill="#444444"/>
</svg>
