<svg width="36" height="36" viewBox="0 0 36 36" fill="none" xmlns="http://www.w3.org/2000/svg">
<path d="M18 0.397461C8.375 0.397461 0.5 8.27246 0.5 17.8975C0.5 27.5225 8.375 35.3975 18 35.3975C27.625 35.3975 35.5 27.5225 35.5 17.8975C35.5 8.27246 27.625 0.397461 18 0.397461ZM18 26.6475C16.6875 26.6475 15.8125 25.7725 15.8125 24.46C15.8125 23.1475 16.6875 22.2725 18 22.2725C19.3125 22.2725 20.1875 23.1475 20.1875 24.46C20.1875 25.7725 19.3125 26.6475 18 26.6475ZM20.1875 20.085H15.8125V9.14746H20.1875V20.085Z" fill="#D72525"/>
</svg>
