<svg xmlns="http://www.w3.org/2000/svg" width="15.135" height="16" viewBox="0 0 15.135 16"><g transform="translate(-13.838)"><g transform="translate(15.346 3.151)"><g transform="translate(0)"><path d="M73.18,98.512l-1.022,11.559H64.669L63.648,98.512l-1.294.113,1.04,11.769a1.091,1.091,0,0,0,1.079.968h7.881a1.093,1.093,0,0,0,1.08-.975l1.039-11.761Z" transform="translate(-62.354 -98.512)" fill="#666"/></g></g><g transform="translate(17.966)"><g transform="translate(0)"><path d="M151.1,0h-4.73A1.076,1.076,0,0,0,145.3,1.075V3.118h1.29V1.29h4.3V3.118h1.29V1.075A1.076,1.076,0,0,0,151.1,0Z" transform="translate(-145.297)" fill="#666"/></g></g><g transform="translate(13.838 2.488)"><g transform="translate(0)"><path d="M28.324,79.568H14.487a.645.645,0,1,0,0,1.29H28.324a.645.645,0,1,0,0-1.29Z" transform="translate(-13.838 -79.568)" fill="#666"/></g></g></g></svg>