<svg xmlns="http://www.w3.org/2000/svg" width="18.922" height="16" viewBox="0 0 18.922 16"><path d="M13.822,39.221a4.949,4.949,0,0,0-3.99,2.027c-.138.177-.261.354-.371.525-.109-.171-.232-.348-.371-.525A4.949,4.949,0,0,0,5.1,39.221,5.217,5.217,0,0,0,0,44.69C0,48.1,2.8,51.316,9.078,55.114a.74.74,0,0,0,.766,0c6.278-3.8,9.078-7.013,9.078-10.424A5.217,5.217,0,0,0,13.822,39.221Zm1.669,9.717a27.509,27.509,0,0,1-6.03,4.68,27.51,27.51,0,0,1-6.03-4.68A6.417,6.417,0,0,1,1.478,44.69,3.748,3.748,0,0,1,5.1,40.7a3.466,3.466,0,0,1,2.8,1.425,5.479,5.479,0,0,1,.857,1.542.739.739,0,0,0,1.411,0A5.471,5.471,0,0,1,11,42.156,3.475,3.475,0,0,1,13.822,40.7a3.748,3.748,0,0,1,3.622,3.993A6.417,6.417,0,0,1,15.491,48.938Z" transform="translate(0 -39.221)" fill="#ADCB47"/></svg>