<svg xmlns="http://www.w3.org/2000/svg" width="16" height="16.001" viewBox="0 0 16 16.001"><path d="M15.875,0H1.125A.625.625,0,0,0,.5.625,6.1,6.1,0,0,0,2.547,5.184L5.284,7.617A2.227,2.227,0,0,1,6.031,9.28v6.1a.625.625,0,0,0,.972.52l3.688-2.458a.625.625,0,0,0,.278-.52V9.28a2.227,2.227,0,0,1,.747-1.663l2.737-2.433A6.1,6.1,0,0,0,16.5.625.625.625,0,0,0,15.875,0ZM13.622,4.249,10.885,6.682a3.478,3.478,0,0,0-1.166,2.6v3.3L7.281,14.207V9.28a3.478,3.478,0,0,0-1.166-2.6L3.378,4.249a4.855,4.855,0,0,1-1.587-3H15.21a4.854,4.854,0,0,1-1.587,3Zm0,0" transform="translate(-0.5 0)" fill="#CBCCD0"/></svg>