<svg width="24" height="25" viewBox="0 0 24 25" fill="none" xmlns="http://www.w3.org/2000/svg">
<path d="M2.58005 19.8284L2.56005 19.8484C2.29005 19.2584 2.12005 18.5884 2.05005 17.8484C2.12005 18.5784 2.31005 19.2384 2.58005 19.8284Z" fill="#292D32"/>
<path d="M9 11.1985C10.3144 11.1985 11.38 10.1329 11.38 8.81848C11.38 7.50404 10.3144 6.43848 9 6.43848C7.68556 6.43848 6.62 7.50404 6.62 8.81848C6.62 10.1329 7.68556 11.1985 9 11.1985Z" fill="#292D32"/>
<path d="M16.19 2.81836H7.81C4.17 2.81836 2 4.98836 2 8.62836V17.0084C2 18.0984 2.19 19.0484 2.56 19.8484C3.42 21.7484 5.26 22.8184 7.81 22.8184H16.19C19.83 22.8184 22 20.6484 22 17.0084V14.7184V8.62836C22 4.98836 19.83 2.81836 16.19 2.81836ZM20.37 13.3184C19.59 12.6484 18.33 12.6484 17.55 13.3184L13.39 16.8884C12.61 17.5584 11.35 17.5584 10.57 16.8884L10.23 16.6084C9.52 15.9884 8.39 15.9284 7.59 16.4684L3.85 18.9784C3.63 18.4184 3.5 17.7684 3.5 17.0084V8.62836C3.5 5.80836 4.99 4.31836 7.81 4.31836H16.19C19.01 4.31836 20.5 5.80836 20.5 8.62836V13.4284L20.37 13.3184Z" fill="#292D32"/>
</svg>
