<svg width="22" height="15" viewBox="0 0 22 15" fill="none" xmlns="http://www.w3.org/2000/svg">
<path d="M21.5975 10.1489C21.546 8.96237 21.3396 7.64693 21.0301 6.40886C20.7206 5.22238 20.3337 4.11328 19.8694 3.26211C18.0639 0.0895653 16.1036 0.579633 13.7565 1.19867C13.0085 1.37922 12.2089 1.58556 11.3835 1.66294H11.1256C10.3002 1.58556 9.5006 1.37922 8.75261 1.19867C6.40544 0.605426 4.44517 0.0895655 2.63965 3.2879C2.17538 4.13907 1.76269 5.24817 1.47897 6.43465C1.16945 7.67272 0.963107 8.98817 0.911521 10.1746C0.859935 11.4901 0.9889 12.4444 1.27262 13.1151C1.55635 13.7341 1.96904 14.121 2.51069 14.2757C3.00076 14.4047 3.5682 14.3531 4.16144 14.0952C5.16737 13.6825 6.32806 12.8055 7.46295 11.748C8.26254 10.9742 9.75853 10.5873 11.2545 10.5873C12.7505 10.5873 14.2465 10.9742 15.0461 11.748C16.181 12.8055 17.3417 13.6825 18.3476 14.0952C18.9409 14.3273 19.5083 14.4047 19.9984 14.2757C20.5142 14.121 20.9527 13.7599 21.2364 13.0893C21.5202 12.4444 21.6491 11.4901 21.5975 10.1489ZM20.3595 12.7282C20.2047 13.0893 19.9984 13.2956 19.7404 13.373C19.4567 13.4504 19.0956 13.3988 18.6829 13.244C17.7802 12.8829 16.7227 12.0833 15.6909 11.1032C14.7108 10.1231 12.9827 9.63299 11.2545 9.63299C9.5264 9.63299 7.79826 10.1231 6.79233 11.0516C5.73482 12.0317 4.6773 12.8571 3.80034 13.1924C3.38765 13.3472 3.02655 13.4246 2.74283 13.3214C2.4849 13.244 2.27855 13.0377 2.12379 12.6766C1.91745 12.1865 1.81428 11.3869 1.86586 10.2004C1.91745 9.09134 2.098 7.82748 2.40752 6.641C2.69124 5.5319 3.05234 4.50018 3.49083 3.72638C4.90944 1.17287 6.5602 1.58556 8.52047 2.10142C9.32005 2.30777 10.1454 2.51411 11.0482 2.59149C11.074 2.59149 11.074 2.59149 11.0998 2.59149H11.3835C11.4093 2.59149 11.4093 2.59149 11.4351 2.59149C12.3636 2.51411 13.189 2.30777 13.9886 2.10142C15.9489 1.61136 17.5996 1.17287 19.0182 3.72638C19.4567 4.50018 19.8178 5.5061 20.1015 6.641C20.3853 7.82748 20.5916 9.06555 20.6432 10.2004C20.6948 11.3869 20.5916 12.1865 20.3595 12.7282Z" fill="white"/>
<path d="M8.88173 5.11948C8.6238 4.88734 8.31428 4.70679 7.95318 4.681C7.92738 4.34569 7.77263 4.01038 7.54049 3.77824L7.51469 3.75245C7.23097 3.46872 6.86987 3.31396 6.45718 3.31396C6.04449 3.31396 5.6576 3.49452 5.39967 3.75245C5.16753 3.98458 4.98698 4.31989 4.96118 4.681C4.60008 4.70679 4.29056 4.86155 4.03263 5.09368L4.00684 5.11948C3.72312 5.4032 3.56836 5.7643 3.56836 6.17699C3.56836 6.58968 3.74891 6.97658 4.00684 7.23451C4.26477 7.49244 4.57429 7.6472 4.96118 7.67299C4.98698 8.03409 5.14174 8.3694 5.39967 8.60154C5.68339 8.88526 6.04449 9.04002 6.45718 9.04002C6.86987 9.04002 7.25676 8.85947 7.51469 8.60154C7.74683 8.34361 7.92738 8.03409 7.95318 7.67299C8.31428 7.6472 8.64959 7.49244 8.88173 7.23451C9.16545 6.95078 9.32021 6.58968 9.32021 6.17699C9.32021 5.7643 9.13966 5.37741 8.88173 5.11948ZM8.2369 6.56389C8.13373 6.66706 8.00476 6.71865 7.85 6.71865H7.4889C7.23097 6.71865 6.99883 6.92499 6.99883 7.20871V7.54402C6.99883 7.69878 6.94725 7.82775 6.84408 7.93092C6.7409 8.03409 6.61194 8.08568 6.45718 8.08568C6.30242 8.08568 6.17346 8.03409 6.07028 7.93092C5.96711 7.82775 5.91553 7.69878 5.91553 7.54402V7.18292C5.91553 6.92499 5.70918 6.69285 5.42546 6.69285H5.06436C4.9096 6.69285 4.78063 6.64127 4.67746 6.5381C4.60008 6.46072 4.5227 6.33175 4.5227 6.17699C4.5227 6.02223 4.57429 5.89327 4.67746 5.7901C4.67746 5.7901 4.67746 5.7901 4.70325 5.7643C4.80643 5.68692 4.93539 5.63534 5.06436 5.63534H5.42546C5.68339 5.63534 5.91553 5.42899 5.91553 5.14527V4.78417C5.91553 4.62941 5.96711 4.50044 6.07028 4.39727C6.17346 4.2941 6.30242 4.24251 6.45718 4.24251C6.61194 4.24251 6.7409 4.2941 6.84408 4.39727C6.84408 4.39727 6.84408 4.39727 6.86987 4.42307C6.94725 4.52624 6.99883 4.6552 6.99883 4.78417V5.14527C6.99883 5.4032 7.20518 5.63534 7.4889 5.63534H7.85C8.00476 5.63534 8.13373 5.68692 8.2369 5.7901C8.34007 5.89327 8.39166 6.02223 8.39166 6.17699C8.39166 6.33175 8.34007 6.46072 8.2369 6.56389Z" fill="white"/>
<path d="M15.7426 5.24838C16.2412 5.24838 16.6454 4.84421 16.6454 4.34563C16.6454 3.84705 16.2412 3.44287 15.7426 3.44287C15.244 3.44287 14.8398 3.84705 14.8398 4.34563C14.8398 4.84421 15.244 5.24838 15.7426 5.24838Z" fill="white"/>
<path d="M15.7426 8.91098C16.2412 8.91098 16.6454 8.5068 16.6454 8.00823C16.6454 7.50965 16.2412 7.10547 15.7426 7.10547C15.244 7.10547 14.8398 7.50965 14.8398 8.00823C14.8398 8.5068 15.244 8.91098 15.7426 8.91098Z" fill="white"/>
<path d="M13.9111 7.07944C14.4096 7.07944 14.8138 6.67526 14.8138 6.17668C14.8138 5.6781 14.4096 5.27393 13.9111 5.27393C13.4125 5.27393 13.0083 5.6781 13.0083 6.17668C13.0083 6.67526 13.4125 7.07944 13.9111 7.07944Z" fill="white"/>
<path d="M17.5737 7.07944C18.0722 7.07944 18.4764 6.67526 18.4764 6.17668C18.4764 5.6781 18.0722 5.27393 17.5737 5.27393C17.0751 5.27393 16.6709 5.6781 16.6709 6.17668C16.6709 6.67526 17.0751 7.07944 17.5737 7.07944Z" fill="white"/>
</svg>
