<svg width="59" height="39" viewBox="0 0 59 39" fill="none" xmlns="http://www.w3.org/2000/svg">
<path d="M58.0347 26.3749C57.8901 23.048 57.3115 19.3595 56.4436 15.888C55.5757 12.5611 54.4909 9.45116 53.189 7.06448C48.1264 -1.83132 42.6298 -0.457171 36.0484 1.2786C33.951 1.78486 31.7089 2.36345 29.3946 2.58042H28.6714C26.357 2.36345 24.115 1.78486 22.0176 1.2786C15.4361 -0.384847 9.93954 -1.83132 4.87689 7.13681C3.57507 9.52348 2.41789 12.6334 1.62233 15.9603C0.754446 19.4318 0.175857 23.1203 0.03121 26.4472C-0.113437 30.1357 0.248181 32.8117 1.04374 34.6921C1.8393 36.4279 2.99648 37.5127 4.51527 37.9467C5.88942 38.3083 7.48054 38.1636 9.14398 37.4404C11.9646 36.2832 15.2192 33.8242 18.4014 30.8589C20.6434 28.6892 24.8382 27.6044 29.033 27.6044C33.2277 27.6044 37.4225 28.6892 39.6645 30.8589C42.8468 33.8242 46.1013 36.2832 48.922 37.4404C50.5854 38.0913 52.1765 38.3083 53.5507 37.9467C54.9971 37.5127 56.2266 36.5002 57.0222 34.6198C57.8177 32.8117 58.1794 30.1357 58.0347 26.3749ZM54.5632 33.6072C54.1292 34.6198 53.5507 35.1984 52.8274 35.4153C52.0319 35.6323 51.0193 35.4877 49.8622 35.0537C47.3308 34.0412 44.3656 31.7992 41.4726 29.0509C38.7243 26.3026 33.8786 24.9284 29.033 24.9284C24.1873 24.9284 19.3416 26.3026 16.521 28.9062C13.5557 31.6545 10.5905 33.9689 8.13145 34.9091C6.97427 35.343 5.96174 35.56 5.16618 35.2707C4.44295 35.0537 3.86436 34.4751 3.43042 33.4626C2.85183 32.0884 2.56254 29.8464 2.70718 26.5195C2.85183 23.4096 3.35809 19.8658 4.22598 16.5389C5.02154 13.429 6.03407 10.536 7.26357 8.36631C11.2414 1.20627 15.8701 2.36345 21.3667 3.80992C23.6087 4.38851 25.9231 4.9671 28.4544 5.18407C28.5267 5.18407 28.5267 5.18407 28.599 5.18407H29.3946C29.4669 5.18407 29.4669 5.18407 29.5392 5.18407C32.1429 4.9671 34.4572 4.38851 36.6993 3.80992C42.1959 2.43577 46.8246 1.20627 50.8024 8.36631C52.0319 10.536 53.0444 13.3566 53.84 16.5389C54.6355 19.8658 55.2141 23.3373 55.3587 26.5195C55.5034 29.8464 55.2141 32.0884 54.5632 33.6072Z" fill="white"/>
<path d="M22.3791 12.2718C21.6559 11.6208 20.788 11.1146 19.7755 11.0423C19.7032 10.102 19.2692 9.16184 18.6183 8.51093L18.546 8.43861C17.7504 7.64305 16.7379 7.20911 15.5807 7.20911C14.4235 7.20911 13.3387 7.71537 12.6154 8.43861C11.9645 9.08952 11.4583 10.0297 11.3859 11.0423C10.3734 11.1146 9.50553 11.5485 8.78229 12.1994L8.70997 12.2718C7.91441 13.0673 7.48047 14.0798 7.48047 15.237C7.48047 16.3942 7.98673 17.4791 8.70997 18.2023C9.43321 18.9255 10.3011 19.3595 11.3859 19.4318C11.4583 20.4443 11.8922 21.3845 12.6154 22.0354C13.411 22.831 14.4235 23.2649 15.5807 23.2649C16.7379 23.2649 17.8227 22.7587 18.546 22.0354C19.1969 21.3122 19.7032 20.4443 19.7755 19.4318C20.788 19.3595 21.7282 18.9255 22.3791 18.2023C23.1747 17.4067 23.6086 16.3942 23.6086 15.237C23.6086 14.0798 23.1024 12.995 22.3791 12.2718ZM20.571 16.3219C20.2817 16.6112 19.9201 16.7558 19.4862 16.7558H18.4737C17.7504 16.7558 17.0995 17.3344 17.0995 18.13V19.0702C17.0995 19.5041 16.9549 19.8657 16.6656 20.155C16.3763 20.4443 16.0147 20.589 15.5807 20.589C15.1468 20.589 14.7852 20.4443 14.4959 20.155C14.2066 19.8657 14.0619 19.5041 14.0619 19.0702V18.0576C14.0619 17.3344 13.4833 16.6835 12.6878 16.6835H11.6752C11.2413 16.6835 10.8797 16.5388 10.5904 16.2496C10.3734 16.0326 10.1564 15.671 10.1564 15.237C10.1564 14.8031 10.3011 14.4415 10.5904 14.1522C10.5904 14.1522 10.5904 14.1522 10.6627 14.0798C10.952 13.8629 11.3136 13.7182 11.6752 13.7182H12.6878C13.411 13.7182 14.0619 13.1396 14.0619 12.3441V11.3316C14.0619 10.8976 14.2066 10.536 14.4959 10.2467C14.7852 9.9574 15.1468 9.81275 15.5807 9.81275C16.0147 9.81275 16.3763 9.9574 16.6656 10.2467C16.6656 10.2467 16.6656 10.2467 16.7379 10.319C16.9549 10.6083 17.0995 10.9699 17.0995 11.3316V12.3441C17.0995 13.0673 17.6781 13.7182 18.4737 13.7182H19.4862C19.9201 13.7182 20.2817 13.8629 20.571 14.1522C20.8603 14.4415 21.005 14.8031 21.005 15.237C21.005 15.671 20.8603 16.0326 20.571 16.3219Z" fill="white"/>
<path d="M41.6173 12.6334C43.0153 12.6334 44.1486 11.5001 44.1486 10.1021C44.1486 8.70405 43.0153 7.57074 41.6173 7.57074C40.2193 7.57074 39.0859 8.70405 39.0859 10.1021C39.0859 11.5001 40.2193 12.6334 41.6173 12.6334Z" fill="white"/>
<path d="M41.6173 22.9033C43.0153 22.9033 44.1486 21.77 44.1486 20.372C44.1486 18.974 43.0153 17.8407 41.6173 17.8407C40.2193 17.8407 39.0859 18.974 39.0859 20.372C39.0859 21.77 40.2193 22.9033 41.6173 22.9033Z" fill="white"/>
<path d="M36.4823 17.7684C37.8803 17.7684 39.0136 16.6351 39.0136 15.2371C39.0136 13.8391 37.8803 12.7057 36.4823 12.7057C35.0842 12.7057 33.9509 13.8391 33.9509 15.2371C33.9509 16.6351 35.0842 17.7684 36.4823 17.7684Z" fill="white"/>
<path d="M46.7523 17.7684C48.1503 17.7684 49.2836 16.6351 49.2836 15.2371C49.2836 13.8391 48.1503 12.7057 46.7523 12.7057C45.3543 12.7057 44.2209 13.8391 44.2209 15.2371C44.2209 16.6351 45.3543 17.7684 46.7523 17.7684Z" fill="white"/>
</svg>
