<svg xmlns="http://www.w3.org/2000/svg" width="80" height="52.543" viewBox="0 0 80 52.543"><g transform="translate(0 -55.109)"><g transform="translate(0 55.109)"><g transform="translate(0 0)"><path d="M79.957,91.447A74.675,74.675,0,0,0,77.765,77a55.453,55.453,0,0,0-4.484-12.156C66.306,52.586,58.733,54.48,49.666,56.871A64.9,64.9,0,0,1,40.5,58.665h-1a64.905,64.905,0,0,1-9.167-1.794c-9.068-2.292-16.64-4.285-23.615,8.071A50.8,50.8,0,0,0,2.236,77.1,74.676,74.676,0,0,0,.043,91.547c-.2,5.082.3,8.769,1.4,11.359a7.552,7.552,0,0,0,4.783,4.484,9.743,9.743,0,0,0,6.377-.7c3.886-1.594,8.37-4.982,12.754-9.068,3.089-2.989,8.868-4.484,14.648-4.484s11.559,1.495,14.648,4.484c4.384,4.085,8.868,7.473,12.754,9.068a10.424,10.424,0,0,0,6.377.7,7.446,7.446,0,0,0,4.783-4.584C79.658,100.316,80.157,96.629,79.957,91.447Zm-4.783,9.964a3.951,3.951,0,0,1-2.391,2.491,6.881,6.881,0,0,1-4.085-.5c-3.488-1.395-7.573-4.484-11.559-8.27-3.786-3.786-10.463-5.68-17.139-5.68s-13.352,1.893-17.238,5.48c-4.085,3.786-8.171,6.975-11.559,8.27a6.181,6.181,0,0,1-4.085.5,3.951,3.951,0,0,1-2.391-2.491c-.8-1.893-1.2-4.982-1-9.566A68.732,68.732,0,0,1,5.823,77.9a47.545,47.545,0,0,1,4.185-11.26c5.48-9.865,11.858-8.27,19.43-6.278A58.451,58.451,0,0,0,39.2,62.252H40.7a57.728,57.728,0,0,0,9.865-1.893c7.573-1.893,13.95-3.587,19.43,6.278A45.946,45.946,0,0,1,74.178,77.9a75.42,75.42,0,0,1,2.093,13.751C76.47,96.23,76.071,99.319,75.174,101.412Z" transform="translate(0 -55.109)" fill="#2d3335"/></g></g><g transform="translate(10.413 64.967)"><g transform="translate(0 0)"><path d="M62.111,102.028a6.117,6.117,0,0,0-3.624-1.711,5.728,5.728,0,0,0-1.611-3.523l-.1-.1a5.7,5.7,0,0,0-4.127-1.711,5.944,5.944,0,0,0-4.127,1.711,5.851,5.851,0,0,0-1.711,3.624,6,6,0,0,0-3.624,1.611l-.1.1a5.7,5.7,0,0,0-1.711,4.128,5.944,5.944,0,0,0,1.711,4.127,5.612,5.612,0,0,0,3.725,1.711,5.37,5.37,0,0,0,1.711,3.624,5.7,5.7,0,0,0,4.127,1.711,5.944,5.944,0,0,0,4.127-1.711,6.117,6.117,0,0,0,1.711-3.624,5.371,5.371,0,0,0,3.624-1.711,5.7,5.7,0,0,0,1.711-4.127A5.944,5.944,0,0,0,62.111,102.028Zm-2.517,5.638a2.049,2.049,0,0,1-1.51.6H56.675a1.911,1.911,0,0,0-1.913,1.913v1.309a2.114,2.114,0,1,1-4.228,0v-1.409a1.911,1.911,0,0,0-1.913-1.913H47.212a2.064,2.064,0,0,1-1.51-3.523l.1-.1a2.406,2.406,0,0,1,1.409-.5h1.409a1.911,1.911,0,0,0,1.913-1.913v-1.409a2.136,2.136,0,0,1,3.624-1.51l.1.1a2.4,2.4,0,0,1,.5,1.409v1.409a1.911,1.911,0,0,0,1.913,1.913h1.409a2.136,2.136,0,0,1,1.51,3.624Z" transform="translate(-41.373 -94.981)" fill="#2d3335"/></g></g><g transform="translate(53.798 65.524)"><g transform="translate(0 0)"><circle cx="3.523" cy="3.523" r="3.523" fill="#2d3335"/></g></g><g transform="translate(53.798 79.651)"><circle cx="3.523" cy="3.523" r="3.523" fill="#2d3335"/></g><g transform="translate(46.73 72.587)"><g transform="translate(0 0)"><circle cx="3.523" cy="3.523" r="3.523" fill="#2d3335"/></g></g><g transform="translate(60.866 72.587)"><g transform="translate(0 0)"><circle cx="3.523" cy="3.523" r="3.523" fill="#2d3335"/></g></g></g></svg>