<svg xmlns="http://www.w3.org/2000/svg" version="1.1" xmlns:xlink="http://www.w3.org/1999/xlink" xmlns:svgjs="http://svgjs.com/svgjs" width="512" height="512" x="0" y="0" viewBox="0 0 68 68" style="enable-background:new 0 0 512 512" xml:space="preserve" class=""><g><g xmlns="http://www.w3.org/2000/svg" id="_x32_9"><g><g><g><g><path d="m34.641449 64.6607895v-12.017807h-13.6047936l2.5315323 12.017807z" fill="#222333" data-original="#222333" class=""></path></g></g><g><g><path d="m23.5189056 64.6607895 2.4617672-12.017807h-13.2298431v12.017807z" fill="#222333" data-original="#222333" class=""></path></g></g><g><g><g><g><g><g><g><g><g><g><g><g><g><g><path d="m34.6414604 25.3565121v28.1105366h-21.8906927v-29.4502335h20.5509987c.7435179 0 1.339694.5962562 1.339694 1.3396969z" fill="#abc76e" data-original="#1baa75" class=""></path></g></g></g></g></g></g></g></g></g><g><g><path d="m31.0299664 24.0151424c-1.1528416 4.3360443-2.8104134 7.0775986-6.1828594 7.6167374-.2122459.0344124-.4359035.0573769-.6653385.0745659-.2007294.0172234-.412941.0229645-.6251507.0229645-.4588699 0-.8890324-.0344124-1.2904892-.0975304-3.3724823-.5391388-5.0300541-3.2806931-6.1828957-7.6167374z" fill="#6f6f6f" data-original="#e2eaff" class=""></path></g></g><g><g><g><path d="m24.8471069 31.6318798c-.2122459.0344124-.4359035.0573769-.6653385.0745659-.2007294.0172234-.412941.0229645-.6251507.0229645-.4588699 0-.8890324-.0344124-1.2904892-.0975304l.5161743-4.3589725.1089764-.9521141h1.3306408l.1204586 1.0094566z" fill="#f8c51a" data-original="#f8c51a" class=""></path></g></g><g><g><path d="m24.8471069 31.6318798c-.2122459.0344124-.4359035.0573769-.6653385.0745659l-.4416447-3.773941-.183506-1.6117115h.6653023l.1204586 1.0094566z" fill="#ef9b13" data-original="#ef9b13"></path></g></g><g><g><path d="m26.1721535 25.5006199-2.5817986 2.5818004-2.5818004-2.5818004z" fill="#f8c51a" data-original="#f8c51a" class=""></path></g></g></g><g><g><path d="m26.6752148 19.4839783v4.5274353l-3.1185971 1.4892063-3.1212959-1.4892063v-4.5274353z" fill="#fdbbad" data-original="#fdbbad" class=""></path></g></g><g><g><path d="m26.6752148 19.4839783v3.2441998c-2.2094707.1039143-4.2789001-.4247284-6.239893-1.4820156v-1.7621841h6.239893z" fill="#eca090" data-original="#eca090"></path></g></g><g><g><path d="m28.5120697 24.0151424-2.4433308 3.2979184-2.5121212-1.8124409 3.1201172-2.718626 1.7894764 1.2274074z" fill="#bdbdbd" data-original="#7d9ce3" class=""></path></g></g><g><g><path d="m18.5998154 24.0151424 2.4433326 3.2979184 2.5121193-1.8124409-3.1201172-2.718626-1.7894763 1.2274074z" fill="#bdbdbd" data-original="#7d9ce3" class=""></path></g></g></g></g><g><g><g><g><g><g><ellipse cx="29.008" cy="14.833" fill="#fdbbad" rx="1.365" ry="1.592" data-original="#fdbbad" class=""></ellipse></g></g></g><g><g><g><ellipse cx="18.182" cy="14.833" fill="#fdbbad" rx="1.365" ry="1.592" data-original="#fdbbad" class=""></ellipse></g></g></g><g><g><g><path d="m17.5973167 15.6535616c.0347691 0 .0690498-.0142021.0940266-.0421162.0455437-.0519104.0411358-.1312447-.0107746-.1772785-.1787472-.1581783-.2771816-.3584738-.2771816-.5641556 0-.206172.0984344-.4064665.2766914-.5641565.0519104-.0460339.0568085-.1248779.0112648-.1767883-.0460339-.0519104-.1258583-.0568075-.1767883-.0112638-.2335968.206172-.3619022.4730692-.3619022.7522087 0 .2786503.1283054.5455465.361412.7522078.0239963.021058.0538692.0313424.0832519.0313424z" fill="#eca090" data-original="#eca090"></path></g></g></g><g><g><g><path d="m29.192009 13.0975771v2.9308405c0 3.1156464-2.5270691 5.6368694-5.6368694 5.6368694-3.1155415 0-5.6368351-2.5212231-5.6368351-5.6368694v-2.9308405c0-3.1156454 2.5212936-5.6368694 5.6368351-5.6368694 1.5577869 0 2.9655609.6287918 3.986784 1.6500149 1.0211887 1.021223 1.6500854 2.4289617 1.6500854 3.9868545z" fill="#fdbbad" data-original="#fdbbad" class=""></path></g></g></g><g><g><g><path d="m21.8390064 14.4544373c0 .3913221-.2147541.7063026-.4819946.7063026s-.486742-.3149805-.486742-.7063026c0-.3913212.2195015-.7110491.486742-.7110491s.4819946.3197279.4819946.7110491z" fill="#0e0f16" data-original="#0e0f16" class=""></path></g></g></g><g><g><g><path d="m26.2390518 14.4544373c0 .3913221-.2147541.7063026-.4819946.7063026s-.486742-.3149805-.486742-.7063026c0-.3913212.2195015-.7110491.486742-.7110491s.4819946.3197279.4819946.7110491z" fill="#0e0f16" data-original="#0e0f16" class=""></path></g></g></g><g><g><g><path d="m21.5879021 17.4964771c-.0012264.028717-.0085487.0556736-.0085487.0846786 0 1.0912094.8845863 1.9757957 1.9757557 1.9757957 1.0912094 0 1.9757957-.8845863 1.9757957-1.9757957 0-.0290051-.0073223-.0559616-.0085487-.0846786z" fill="#ffffff" data-original="#ffffff" class=""></path></g></g></g><g><g><g><path d="m29.5257645 15.5800171c-.034771 0-.0690517-.0142021-.0940266-.0421162-.0455437-.0519104-.0411358-.1312447.0107746-.1772776.1787472-.1581793.2771797-.3584747.2771797-.5641565 0-.206172-.0984325-.4064665-.2766914-.5641565-.0519104-.0460329-.0568066-.1248779-.0112629-.1767883.0460339-.0519104.1258583-.0568075.1767883-.0112638.2335968.206172.3619022.4730692.3619022.7522087 0 .2786503-.1283054.5455465-.361412.7522078-.0239963.021058-.0538692.0313424-.0832519.0313424z" fill="#eca090" data-original="#eca090"></path></g></g></g><g><g><g><path d="m29.192009 14.8701h-.6020508l-.9461613-5.4984159 3.1719799-.0858698z" fill="#0e0f16" data-original="#0e0f16" class=""></path></g></g></g><g><g><g><path d="m17.9250069 14.8701h.6020508l.9461632-5.4984159-2.3345261-1.6598883s-.7916279 1.1306458-.8374538 1.5740185c-.1494752 1.4461889 1.6237659 5.5842857 1.6237659 5.5842857z" fill="#0e0f16" data-original="#0e0f16" class=""></path></g></g></g><g><g><g><path d="m30.8333111 9.470993c.0057297.2924356-.1500378.5659733-.415369.6890602-2.0566196.9540634-9.4691448 1.5122137-12.9804173-.5068226-3.3905172-1.9495392-1.9594879-4.5131836-1.9594879-4.5131836s2.2662506.58109 3.9320431-.4455023c1.6657906-1.0265923 3.8351936-2.5761657 7.8640842-.4067631 3.1512165 1.6968094 3.5395145 4.1812774 3.5591469 5.1832114z" fill="#222333" data-original="#222333" class=""></path></g></g></g></g></g></g></g></g></g><g><g><g><path d="m29.2482452 37.9225731c0 .3310623.2113209.6481972.5423832.7608452l.6410599.2184143 1.7188168-.7326393-1.7117672-.9440002c-.4085827-.225296-.9228477-.0491867-1.1200676.3733673-.0493145.10577-.0704251.2184181-.0704251.3240127z" fill="#fdbbad" data-original="#fdbbad" class=""></path></g></g><g><g><path d="m17.7031517 37.9225731c0 .3310623-.2113209.6481972-.5423851.7608452l-.641058.2184143-1.7188177-.7326393 1.7117662-.9440002c.4085846-.225296.9228497-.0491867 1.1200676.3733673.0493165.10577.070427.2184181.070427.3240127z" fill="#fdbbad" data-original="#fdbbad" class=""></path></g></g><g><g><path d="m28.6430702 46.2375793h-10.9033088c-.6397495 0-1.1583672-.5186195-1.1583672-1.1583672v-10.2333297c0-.6397476.5186176-1.1583672 1.1583672-1.1583672h10.9033089c.6397476 0 1.1583672.5186195 1.1583672 1.1583672v10.2333298c-.0000001.6397476-.5186197 1.1583671-1.1583673 1.1583671z" fill="#222333" data-original="#222333" class=""></path></g></g></g><g><g><path d="m32.1505051 43.0297127 8.8276215.4129066c2.4704781 0 4.2832603-2.6616287 3.9289665-5.1065674-.3067665-2.1169586-4.2618523-8.5880623-6.4685516-12.0700645-.9316025-1.4699936-2.5578461-2.3602409-4.297966-2.3329678-.4749146.0074444-.8617249.0308628-1.0078621.0821228-1.3881836.4869423-2.2756634 3.187973-1.4671745 5.2366924 1.5743942 3.9895248 5.7073746 8.2292824 5.7073746 8.2292824l-5.2224083.688076v4.8605195z" fill="#abc76e" data-original="#1baa75" class=""></path></g></g><g><g><path d="m31.3917561 26.9557819c-.0035.674963.0778198 1.3426743.2960243 1.9589462.6893597 1.7506618 2.0059376 3.7923603 2.8949642 5.2641048-.4613609-.4955139-.8799438-1.0272865-1.2734985-1.5779495-.7186661-.9928684-1.5332336-2.4303455-1.8741951-3.6080685-.1778431-.672264-.1885987-1.3755606-.0432949-2.037033z" fill="#979797" data-original="#0f875a" class=""></path></g></g><g><g><path d="m37.3729134 37.4811172c-.8868637-.0102768-1.7610893.0754204-2.6323395.1835709-.869648.1204834-1.7362404.2640495-2.5900688.5045433.8869743.0110664 1.7611847-.0746307 2.6323433-.1837311.8695488-.1211128 1.7361297-.2646827 2.590065-.5043831z" fill="#979797" data-original="#0f875a" class=""></path></g></g><g><g><path d="m26.0853043 41.3602982c0 1.1410904.9721222 2.0427856 2.1133003 1.9583435l3.9519005-.288929v-4.8605194l-1.7188168.7326393-2.7473068.5212746c-.9298573.1761054-1.5990772.9861373-1.5990772 1.937191z" fill="#fdbbad" data-original="#fdbbad" class=""></path></g></g><g><g><g><path d="m14.8008909 43.0297127-8.8276205.4129066c-2.4704766 0-4.2832594-2.6616287-3.9289663-5.1065674.3067658-2.1169586 4.2618523-8.5880623 6.4685526-12.0700645.9316015-1.4699936 2.5578432-2.3602409 4.2979631-2.3329678.4749174.0074444.8617249.0308628 1.0078621.0821228 1.3881845.4869423 2.2756653 3.187973 1.4671755 5.2366924-1.5743933 3.9895248-5.7073746 8.2292824-5.7073746 8.2292824l5.2224083.688076v4.8605195z" fill="#abc76e" data-original="#1baa75" class=""></path></g></g><g><g><path d="m15.5596409 26.9557819c.003499.674963-.0778198 1.3426743-.2960243 1.9589462-.6893578 1.7506618-2.0059366 3.7923603-2.8949642 5.2641048 1.2376499-1.3292618 2.6515503-3.4722824 3.1476936-5.186018.1778431-.672264.1885977-1.3755606.0432949-2.037033z" fill="#979797" data-original="#0f875a" class=""></path></g></g><g><g><path d="m9.5784826 37.4811172c.8868656-.0102768 1.7610893.0754204 2.6323404.1835709.869648.1204834 1.7362404.2640495 2.5900669.5045433-.8869734.0110664-1.7611847-.0746307-2.6323404-.1837311-.8695516-.1211128-1.7361316-.2646827-2.5900669-.5043831z" fill="#979797" data-original="#0f875a" class=""></path></g></g><g><g><path d="m20.8660927 41.3602982c0 1.1410904-.9721222 2.0427856-2.1133003 1.9583435l-3.9519014-.288929v-4.8605194l1.7188177.7326393 2.7473068.5212746c.9298572.1761054 1.5990772.9861373 1.5990772 1.937191z" fill="#fdbbad" data-original="#fdbbad" class=""></path></g></g></g></g><g><g><path d="m24.319994 64.6607895h-2.0401821l1.0200843-7.3595505z" fill="#0e0f16" data-original="#0e0f16" class=""></path></g></g></g><g><g><path d="m61.5623436 64.8077393h-27.4392929c-3.5945396 0-5.6924934-4.0554924-3.6156731-6.9893532l13.7196465-19.3813171c1.7653847-2.4939041 5.4659576-2.4939041 7.2313461 0l13.7196465 19.3813171c2.0768203 2.9338608-.0211335 6.9893532-3.6156731 6.9893532z" fill="#6f6f6f" data-original="#e2eaff" class=""></path></g></g><g><g><g><path d="m50.217823 47.0407486c0 .1026611-.0054092.2054558-.0161972.3081169l-.8377571 7.2641945c-.1026955.9079895-.8702164 1.5836067-1.778244 1.5836067-.9080238 0-1.6755142-.6756172-1.7782097-1.5836067l-.8377571-7.2641945c-.1837807-1.5619659 1.043148-2.9348412 2.6159668-2.9348412 1.4701614.0000001 2.6321983 1.1944695 2.6321983 2.6267243z" fill="#bdbdbd" data-original="#7d9ce3" class=""></path></g></g><g><g><path d="m49.5661011 59.0004387c0 1.0940666-.8864822 1.9805756-1.9805489 1.9805756-1.0940399 0-1.980545-.8865089-1.980545-1.9805756s.8865051-1.9849052 1.980545-1.9849052c1.0940666-.0000001 1.9805489.8908386 1.9805489 1.9849052z" fill="#bdbdbd" data-original="#7d9ce3" class=""></path></g></g></g></g></g></svg>