<svg xmlns="http://www.w3.org/2000/svg" width="70" height="45.975" viewBox="0 0 70 45.975">
  <g id="game_popup" transform="translate(0 -55.109)">
    <path id="Path_2399" data-name="Path 2399" d="M69.963,86.905a65.342,65.342,0,0,0-1.918-12.642,48.522,48.522,0,0,0-3.923-10.637c-6.1-10.724-12.729-9.068-20.664-6.975a56.791,56.791,0,0,1-8.021,1.569h-.872a56.791,56.791,0,0,1-8.021-1.569C18.609,54.646,11.983,52.9,5.88,63.713A44.448,44.448,0,0,0,1.956,74.35,65.341,65.341,0,0,0,.038,86.992c-.174,4.447.262,7.673,1.221,9.939a6.608,6.608,0,0,0,4.185,3.923,8.525,8.525,0,0,0,5.58-.61c3.4-1.4,7.324-4.359,11.16-7.934,2.7-2.616,7.76-3.923,12.817-3.923S45.114,89.7,47.817,92.311c3.836,3.575,7.76,6.539,11.16,7.934a9.121,9.121,0,0,0,5.58.61,6.515,6.515,0,0,0,4.185-4.011C69.7,94.665,70.137,91.439,69.963,86.905Z" transform="translate(0 0)" fill="#ff6770"/>
    <path id="Path_2400" data-name="Path 2400" d="M57.318,106.081a1.793,1.793,0,0,1-1.321.529H54.763a1.673,1.673,0,0,0-1.674,1.674v1.145a1.85,1.85,0,1,1-3.7,0V108.2a1.673,1.673,0,0,0-1.674-1.674H46.482a1.806,1.806,0,0,1-1.321-3.083l.088-.088a2.1,2.1,0,0,1,1.233-.44h1.233a1.673,1.673,0,0,0,1.674-1.674V100a1.869,1.869,0,0,1,3.171-1.321l.088.088A2.1,2.1,0,0,1,53.09,100v1.233a1.673,1.673,0,0,0,1.674,1.674H56a1.869,1.869,0,0,1,1.321,3.171Z" transform="translate(-32.261 -31.246)" fill="#fff"/>
    <circle id="Ellipse_2666" data-name="Ellipse 2666" cx="3.083" cy="3.083" r="3.083" transform="translate(47.073 64.222)" fill="#fff"/>
    <circle id="Ellipse_2667" data-name="Ellipse 2667" cx="3.083" cy="3.083" r="3.083" transform="translate(47.073 76.583)" fill="#fff"/>
    <circle id="Ellipse_2668" data-name="Ellipse 2668" cx="3.083" cy="3.083" r="3.083" transform="translate(40.889 70.402)" fill="#fff"/>
    <circle id="Ellipse_2669" data-name="Ellipse 2669" cx="3.083" cy="3.083" r="3.083" transform="translate(53.257 70.402)" fill="#fff"/>
  </g>
</svg>
