<svg id="grid" xmlns="http://www.w3.org/2000/svg" width="16" height="16" viewBox="0 0 16 16">
  <path id="Path_3696" data-name="Path 3696" d="M5.525,0H1.85A1.852,1.852,0,0,0,0,1.85V5.525a1.852,1.852,0,0,0,1.85,1.85H5.525a1.852,1.852,0,0,0,1.85-1.85V1.85A1.852,1.852,0,0,0,5.525,0Zm.6,5.525a.6.6,0,0,1-.6.6H1.85a.6.6,0,0,1-.6-.6V1.85a.6.6,0,0,1,.6-.6H5.525a.6.6,0,0,1,.6.6Z" fill="#666"/>
  <g id="Group_9221" data-name="Group 9221" transform="translate(8.625)" >
    <path id="Path_3697" data-name="Path 3697" d="M281.5,0h-3.625A1.877,1.877,0,0,0,276,1.875V5.5a1.877,1.877,0,0,0,1.875,1.875H281.5A1.877,1.877,0,0,0,283.375,5.5V1.875A1.877,1.877,0,0,0,281.5,0Zm.625,5.5a.626.626,0,0,1-.625.625h-3.625a.626.626,0,0,1-.625-.625V1.875a.626.626,0,0,1,.625-.625H281.5a.626.626,0,0,1,.625.625Z" transform="translate(-276)" fill="#666"/>
  </g>
  <g id="Group_9222" data-name="Group 9222" transform="translate(0 8.625)">
    <path id="Path_3698" data-name="Path 3698" d="M5.525,276H1.85A1.852,1.852,0,0,0,0,277.85v3.674a1.852,1.852,0,0,0,1.85,1.85H5.525a1.852,1.852,0,0,0,1.85-1.85V277.85A1.852,1.852,0,0,0,5.525,276Zm.6,5.525a.6.6,0,0,1-.6.6H1.85a.6.6,0,0,1-.6-.6V277.85a.6.6,0,0,1,.6-.6H5.525a.6.6,0,0,1,.6.6Z" transform="translate(0 -276)" fill="#666"/>
  </g>
  <g id="Group_9223" data-name="Group 9223" transform="translate(8.625 8.625)">
    <path id="Path_3699" data-name="Path 3699" d="M281.5,276h-3.625A1.877,1.877,0,0,0,276,277.875V281.5a1.877,1.877,0,0,0,1.875,1.875H281.5a1.877,1.877,0,0,0,1.875-1.875v-3.625A1.877,1.877,0,0,0,281.5,276Zm.625,5.5a.626.626,0,0,1-.625.625h-3.625a.626.626,0,0,1-.625-.625v-3.625a.626.626,0,0,1,.625-.625H281.5a.626.626,0,0,1,.625.625Z" transform="translate(-276 -276)" fill="#666"/>
  </g>
</svg>
