<svg xmlns="http://www.w3.org/2000/svg" width="500" height="466.752" viewBox="0 0 500 466.752">
  <g id="Group_322" data-name="Group 322" transform="translate(-8327 -2677.248)">
    <g id="Group_321" data-name="Group 321" transform="translate(8327 2655.19)">
      <g id="Background_Complete" data-name="Background Complete">
        <g id="Group_1" data-name="Group 1">
          <rect id="Rectangle_1" data-name="Rectangle 1" width="500" height="0.25" transform="translate(0 382.398)" fill="#ebebeb"/>
          <rect id="Rectangle_2" data-name="Rectangle 2" width="33.122" height="0.25" transform="translate(416.779 398.494)" fill="#ebebeb"/>
          <rect id="Rectangle_3" data-name="Rectangle 3" width="12.887" height="0.25" transform="translate(260.335 395.361)" fill="#ebebeb"/>
          <rect id="Rectangle_4" data-name="Rectangle 4" width="27.14" height="0.25" transform="translate(322.527 396.417)" fill="#ebebeb"/>
          <rect id="Rectangle_5" data-name="Rectangle 5" width="56.111" height="0.25" transform="translate(359.667 389.208)" fill="#ebebeb"/>
          <rect id="Rectangle_6" data-name="Rectangle 6" width="26.527" height="0.25" transform="translate(52.459 400.778)" fill="#ebebeb"/>
          <rect id="Rectangle_7" data-name="Rectangle 7" width="23" height="0.25" transform="translate(87.889 400.778)" fill="#ebebeb"/>
          <rect id="Rectangle_8" data-name="Rectangle 8" width="60.814" height="0.25" transform="translate(131 395.236)" fill="#ebebeb"/>
          <path id="Path_1" data-name="Path 1" d="M237.014,337.8H43.915a5.715,5.715,0,0,1-5.708-5.708V60.66a5.714,5.714,0,0,1,5.708-5.707h193.1a5.714,5.714,0,0,1,5.707,5.707V332.092A5.715,5.715,0,0,1,237.014,337.8ZM43.915,55.2a5.463,5.463,0,0,0-5.458,5.457V332.092a5.464,5.464,0,0,0,5.458,5.458h193.1a5.463,5.463,0,0,0,5.457-5.458V60.66a5.463,5.463,0,0,0-5.457-5.457Z" fill="#ebebeb"/>
          <path id="Path_2" data-name="Path 2" d="M453.31,337.8h-193.1a5.714,5.714,0,0,1-5.707-5.708V60.66a5.713,5.713,0,0,1,5.707-5.707h193.1a5.714,5.714,0,0,1,5.709,5.707V332.092A5.715,5.715,0,0,1,453.31,337.8ZM260.212,55.2a5.463,5.463,0,0,0-5.457,5.457V332.092a5.463,5.463,0,0,0,5.457,5.458h193.1a5.464,5.464,0,0,0,5.459-5.458V60.66A5.464,5.464,0,0,0,453.31,55.2Z" fill="#ebebeb"/>
        </g>
        <g id="Group_11" data-name="Group 11">
          <g id="Group_6" data-name="Group 6">
            <g id="Group_2" data-name="Group 2">
              <path id="Path_3" data-name="Path 3" d="M467.064,194.172a53.852,53.852,0,0,0-.992-33.044,46.489,46.489,0,0,0-20.978-69.849A80.241,80.241,0,0,0,318.172,37.608a41.041,41.041,0,0,0-70.691,27.931,61.906,61.906,0,0,0-35.121,100.65A46.585,46.585,0,0,0,264.3,234.006a71.932,71.932,0,0,0,96.825,18.46c7.521,17.494,13.7,43.732.4,69.462,48.344-4.742,83.256-51.113,76.141-93.6A53.976,53.976,0,0,0,467.064,194.172Z" fill="#ebebeb"/>
              <path id="Path_4" data-name="Path 4" d="M374.317,312.332a1,1,0,0,1-.961-1.276c6.811-23.717.6-46.456-5.8-61.356l-3.246-7.547-6.937,4.4A64.93,64.93,0,0,1,269.966,229.9l-2.773-3.822-4.582,1.14a39.582,39.582,0,0,1-44.126-57.635l2.334-4.218-3.107-3.684A54.905,54.905,0,0,1,248.864,72.4l5.553-1.118.064-5.665A34.038,34.038,0,0,1,313.11,42.444l4.241,4.438,4.954-3.623A73.24,73.24,0,0,1,438.162,92.248l.565,4.041,3.8,1.5a39.488,39.488,0,0,1,17.812,59.328l-2.064,2.954,1.205,3.4a47.061,47.061,0,0,1-24.739,58.5l-4.862,2.237.885,5.278c3.036,18.129-2.425,37.931-14.984,54.33A81.031,81.031,0,0,1,374.6,312.292,1,1,0,0,1,374.317,312.332Zm-9.551-72.651a.965.965,0,0,1,.3.045,1,1,0,0,1,.623.56l3.709,8.625c6.376,14.83,12.552,37.293,6.369,60.934A79.179,79.179,0,0,0,414.188,282.6c12.222-15.96,17.543-35.2,14.6-52.784l-1.01-6.032a1,1,0,0,1,.568-1.073l5.556-2.557a45.059,45.059,0,0,0,23.69-56.017l-1.377-3.882a1,1,0,0,1,.123-.906l2.358-3.376a37.491,37.491,0,0,0-16.907-56.325l-4.338-1.714a1,1,0,0,1-.622-.791l-.645-4.619a71.217,71.217,0,0,0-112.7-47.653l-5.662,4.142a1,1,0,0,1-1.314-.117l-4.846-5.072a32.041,32.041,0,0,0-55.183,21.817l-.073,6.473a1,1,0,0,1-.8.969l-6.346,1.278a52.9,52.9,0,0,0-30.018,86.025l3.551,4.211a1,1,0,0,1,.111,1.129l-2.668,4.82a37.843,37.843,0,0,0-3.251,7.815,37.587,37.587,0,0,0,45.145,46.909l5.237-1.3a.993.993,0,0,1,1.051.384l3.168,4.368a62.352,62.352,0,0,0,33.493,23.511,62.74,62.74,0,0,0,51.224-7.367l7.928-5.03A1,1,0,0,1,364.766,239.681Z" fill="#fff"/>
            </g>
            <g id="Group_3" data-name="Group 3">
              <path id="Path_5" data-name="Path 5" d="M304.191,146.189l-26.805-4.173.418-2.68a33.5,33.5,0,0,1,3.281-10.868,24.927,24.927,0,0,1,5.833-7.076q3.618-3.048,15.723-10.266,6.439-3.768,7.042-7.645a7.966,7.966,0,0,0-1.353-6.388q-1.957-2.51-6.613-3.234a11.31,11.31,0,0,0-8.8,2.024q-3.8,2.806-6,10.916l-26.841-7.647q3.76-14.875,14.752-22.592t30.741-4.642Q320.943,74.312,329.4,82.2q11.487,10.674,9.236,25.134a22.59,22.59,0,0,1-5.117,11.053q-4.184,5.057-15.662,11.5-8,4.536-10.4,7.664A18.781,18.781,0,0,0,304.191,146.189ZM275.36,149l28.708,4.47-3.942,25.322-28.708-4.47Z" fill="#fff"/>
            </g>
            <g id="Group_4" data-name="Group 4">
              <path id="Path_6" data-name="Path 6" d="M372.593,185.424,357.711,173.37l1.2-1.488a23.654,23.654,0,0,1,5.858-5.47,17.578,17.578,0,0,1,6.071-2.25,101.484,101.484,0,0,1,13.239-.69q5.266-.017,7.009-2.169a5.621,5.621,0,0,0,1.44-4.379,7.027,7.027,0,0,0-2.889-4.32,7.987,7.987,0,0,0-6.092-1.887q-3.314.366-7.533,4.536l-13.672-14.188q7.571-7.748,17.017-8.558t20.412,8.069q8.537,6.915,10.9,14.73,3.227,10.59-3.277,18.618a15.95,15.95,0,0,1-7.044,4.932q-4.347,1.6-13.641,1.467-6.494-.07-9.069.988A13.252,13.252,0,0,0,372.593,185.424ZM354,176.913l15.938,12.911-11.388,14.059L342.61,190.972Z" fill="#fff"/>
            </g>
            <g id="Group_5" data-name="Group 5">
              <path id="Path_7" data-name="Path 7" d="M376.753,98.8l-6.441-8.795.879-.644a13.5,13.5,0,0,1,4.018-2.161,10.021,10.021,0,0,1,3.668-.357,57.7,57.7,0,0,1,7.387,1.542q2.9.756,4.174-.176a3.206,3.206,0,0,0,1.428-2.2,4,4,0,0,0-.964-2.8,4.547,4.547,0,0,0-3.079-1.923q-1.877-.279-4.8,1.4L377.553,72.9a15.16,15.16,0,0,1,10.609-2.24q5.318.924,10.063,7.4,3.7,5.044,3.86,9.689a10.854,10.854,0,0,1-4.506,9.772,9.07,9.07,0,0,1-4.593,1.692,23.181,23.181,0,0,1-7.721-1.172,14.745,14.745,0,0,0-5.135-.773A7.551,7.551,0,0,0,376.753,98.8Zm-9-7.384,6.9,9.42-8.309,6.085-6.9-9.42Z" fill="#fff"/>
            </g>
          </g>
          <g id="Group_10" data-name="Group 10">
            <g id="Group_7" data-name="Group 7">
              <path id="Path_8" data-name="Path 8" d="M128.335,223.574a46.908,46.908,0,0,1-23.959-6.658c-10.147-6.047-17.318-15.42-19.754-25.785a29.067,29.067,0,0,1-26.967-27.456A25.107,25.107,0,0,1,54.2,124.984,42.761,42.761,0,0,1,105.86,73.622a22.253,22.253,0,0,1,40.7-.1,33.168,33.168,0,0,1,37.018,42.705,25.156,25.156,0,0,1-12.363,43.986,38.047,38.047,0,0,1-13.536,20.4,38.477,38.477,0,0,1-29.788,7.578c-.106,9.715,2.152,22.885,13.025,32.3a.785.785,0,0,1-.3,1.347A44.2,44.2,0,0,1,128.335,223.574ZM95.727,73.981a41.216,41.216,0,0,0-39.9,51.07.79.79,0,0,1-.223.759,23.535,23.535,0,0,0,3.247,36.777.786.786,0,0,1,.353.626A27.5,27.5,0,0,0,85.3,189.6a.782.782,0,0,1,.726.616c2.209,10.173,9.191,19.413,19.155,25.351a44.625,44.625,0,0,0,33.629,5.143c-10.731-10.037-12.725-23.659-12.468-33.466a.79.79,0,0,1,.291-.59.8.8,0,0,1,.639-.161,36.91,36.91,0,0,0,29.447-7.113,36.509,36.509,0,0,0,13.11-20.056.783.783,0,0,1,.654-.585A23.583,23.583,0,0,0,182.172,117.1a.786.786,0,0,1-.248-.855,31.6,31.6,0,0,0-35.7-41.07.785.785,0,0,1-.867-.473,20.684,20.684,0,0,0-38.309.134.787.787,0,0,1-.923.467A41.726,41.726,0,0,0,95.727,73.981Z" fill="#e6e6e6"/>
            </g>
            <g id="Group_8" data-name="Group 8">
              <path id="Path_9" data-name="Path 9" d="M100.6,139.957l-13.814,3.252-.325-1.381a17.545,17.545,0,0,1-.548-5.914,13.031,13.031,0,0,1,1.435-4.577,75.29,75.29,0,0,1,5.6-8.071q2.379-3.093,1.908-5.091a4.164,4.164,0,0,0-1.912-2.83,5.206,5.206,0,0,0-3.842-.266,5.912,5.912,0,0,0-3.869,2.714q-1.288,2.106-.759,6.471L69.955,125.84a19.725,19.725,0,0,1,2.7-13.854q3.809-5.9,13.987-8.3,7.924-1.864,13.574.3,7.668,2.913,9.423,10.365a11.82,11.82,0,0,1-.305,6.364q-1.033,3.274-5.328,8.659-2.987,3.772-3.535,5.762A9.83,9.83,0,0,0,100.6,139.957Zm-13.422,7.035,14.8-3.483,3.072,13.05-14.794,3.483Z" fill="#ebebeb"/>
            </g>
            <g id="Group_9" data-name="Group 9">
              <path id="Path_10" data-name="Path 10" d="M135.753,110.788l-9.585-2.915.291-.958a12.388,12.388,0,0,1,1.763-3.8,9.221,9.221,0,0,1,2.5-2.285A53.273,53.273,0,0,1,137,97.886q2.55-1.044,2.971-2.431a2.94,2.94,0,0,0-.164-2.406,3.676,3.676,0,0,0-2.25-1.525,4.179,4.179,0,0,0-3.325.284,7.268,7.268,0,0,0-2.759,3.681L122.058,91.3a13.921,13.921,0,0,1,6.564-7.5q4.419-2.253,11.482-.106a16.233,16.233,0,0,1,8.181,5,9.975,9.975,0,0,1,2.075,9.669,8.346,8.346,0,0,1-2.443,3.777,21.312,21.312,0,0,1-6.324,3.4,13.579,13.579,0,0,0-4.2,2.263A6.932,6.932,0,0,0,135.753,110.788Zm-10.688-.466,10.267,3.121-2.754,9.056-10.266-3.122Z" fill="#ebebeb"/>
            </g>
          </g>
        </g>
      </g>
      <g id="Shadow">
        <ellipse id="_Path_" data-name="&lt;Path&gt;" cx="193.889" cy="11.323" rx="193.889" ry="11.323" transform="translate(56.111 404.915)" fill="#f5f5f5"/>
      </g>
      <g id="Question_Marks" data-name="Question Marks">
        <g id="Group_15" data-name="Group 15">
          <g id="Group_13" data-name="Group 13">
            <path id="Path_13" data-name="Path 13" d="M157.612,247.439l-.921-.391a18.133,18.133,0,0,0,1.454-4.955l.994.109A19.116,19.116,0,0,1,157.612,247.439Zm-.393-11.456a13.333,13.333,0,0,0-10.43-7.774l.166-.986a14.293,14.293,0,0,1,11.174,8.346Z" fill="#b0ce47"/>
            <path id="Path_14" data-name="Path 14" d="M151.983,257.5l-9.839,4.479-.447-.984a13.319,13.319,0,0,1-1.287-4.337,9.918,9.918,0,0,1,.393-3.633,57.231,57.231,0,0,1,2.987-6.861q1.32-2.664.671-4.087a3.176,3.176,0,0,0-1.849-1.831,3.971,3.971,0,0,0-2.91.371,4.508,4.508,0,0,0-2.488,2.6q-.649,1.766.393,4.948L127,251.494a15.028,15.028,0,0,1-.034-10.752q1.97-4.976,9.219-8.276,5.645-2.569,10.186-1.793a10.763,10.763,0,0,1,8.578,6.347,9,9,0,0,1,.716,4.8,22.988,22.988,0,0,1-2.7,7.26,14.663,14.663,0,0,0-1.786,4.829A7.476,7.476,0,0,0,151.983,257.5ZM143,264.744l10.538-4.8,4.231,9.3-10.537,4.8Z" fill="#b0ce47"/>
          </g>
          <g id="Group_14" data-name="Group 14">
            <path id="Path_15" data-name="Path 15" d="M127.641,279.732l-5.006,6.794-.679-.5a10.442,10.442,0,0,1-2.526-2.468,7.75,7.75,0,0,1-1.113-2.627,44.7,44.7,0,0,1-.572-5.814q-.114-2.318-1.1-3.041a2.481,2.481,0,0,0-1.957-.546,3.1,3.1,0,0,0-1.843,1.36,3.517,3.517,0,0,0-.708,2.719,6.116,6.116,0,0,0,2.149,3.225l-5.969,6.3a11.73,11.73,0,0,1-4.111-7.318q-.549-4.142,3.139-9.148a13.672,13.672,0,0,1,6.264-5.1,8.4,8.4,0,0,1,8.261,1.066,7.028,7.028,0,0,1,2.314,3,17.963,17.963,0,0,1,.922,5.975,11.435,11.435,0,0,0,.618,3.972A5.835,5.835,0,0,0,127.641,279.732Zm-3.371,8.357,5.361-7.277,6.419,4.728-5.361,7.278Z" fill="#b0ce47"/>
          </g>
        </g>
      </g>
      <g id="Character">
        <g id="Group_21" data-name="Group 21">
          <path id="Path_16" data-name="Path 16" d="M234.088,412.636a4.484,4.484,0,0,1-3.987-2.425c-4.018-7.763-9.067-16.872-18.154-26.732a4.486,4.486,0,0,1-1.012-4.283c3.375-11.711,8.671-27.718,8.724-27.879a4.486,4.486,0,0,1,8.516,2.821c-.049.148-4.611,13.937-7.923,25.156a126.137,126.137,0,0,1,17.816,26.794,4.487,4.487,0,0,1-3.98,6.548Z" fill="#b0ce47"/>
          <path id="Path_17" data-name="Path 17" d="M241.56,416.238H206.772l18.436-10.457,15.455.6Z" fill="#263238"/>
          <ellipse id="Ellipse_1" data-name="Ellipse 1" cx="30.042" cy="24.896" rx="30.042" ry="24.896" transform="translate(194.694 335.535) rotate(-17.357)" fill="#263238"/>
          <path id="Path_18" data-name="Path 18" d="M151.653,333.981a4.486,4.486,0,0,1-1.718-8.63,5.06,5.06,0,0,0,2.97-3.77,4.483,4.483,0,0,1,3.67-3.995,32.009,32.009,0,0,0,3.3-.845c6.078-1.775,13.605-3.976,37.31,2.662,23.381-13.076,23.647-37.6,23.647-38.655a4.491,4.491,0,0,1,4.47-4.494h.016A4.478,4.478,0,0,1,229.8,280.7c.009,1.3-.136,32.083-30.042,47.5a4.465,4.465,0,0,1-3.3.322c-22.6-6.525-28.957-4.666-34.068-3.171-.453.131-.912.266-1.38.4a13.839,13.839,0,0,1-7.641,7.891A4.479,4.479,0,0,1,151.653,333.981Z" fill="#263238"/>
          <path id="Path_19" data-name="Path 19" d="M204.081,301.891c-8.506-33.825-31.184-121.06,41.467-126.394,65.178-4.784,83.067,81.971,87.415,112.026a352.279,352.279,0,0,1,3.534,45.819,33.307,33.307,0,0,1-26.756,33.012c-35.511,7.213-69.116,8.238-91.748-.7a14.861,14.861,0,0,1-9.233-15.2C209.632,340.738,209.648,324.028,204.081,301.891Z" fill="#b0ce47"/>
          <path id="Path_20" data-name="Path 20" d="M332.96,287.52c-4.1-28.324-20.221-107.042-76.66-111.964a16.4,16.4,0,0,0-16.075,8.518c-2.518,4.876-2.436,10.79,1.335,16.636C254,220,283.665,286.67,279.185,323c-2.04,16.53-12.407,29.728-3.385,48.31a291.158,291.158,0,0,0,33.94-4.96,33.294,33.294,0,0,0,26.76-33.01A351.648,351.648,0,0,0,332.96,287.52Z" opacity="0.1"/>
          <path id="Path_21" data-name="Path 21" d="M323.239,333.79a.448.448,0,0,1-.448-.443,350.074,350.074,0,0,0-3.53-45.76c-10.8-74.652-39.875-112.408-84.1-109.151a.443.443,0,0,1-.48-.414.449.449,0,0,1,.415-.48c44.752-3.3,74.172,34.723,85.05,109.916a351.006,351.006,0,0,1,3.539,45.879.449.449,0,0,1-.443.453Z" fill="#263238"/>
          <ellipse id="Ellipse_2" data-name="Ellipse 2" cx="30.042" cy="24.896" rx="30.042" ry="24.896" transform="translate(279.023 337.928) rotate(-17.358)" fill="#263238"/>
          <path id="Path_22" data-name="Path 22" d="M325.3,412.636a4.484,4.484,0,0,1-3.987-2.425c-4.018-7.763-9.067-16.871-18.154-26.732a4.486,4.486,0,0,1-1.011-4.283c3.374-11.711,8.671-27.718,8.723-27.879a4.486,4.486,0,0,1,8.517,2.821c-.05.148-4.612,13.937-7.924,25.156a126.138,126.138,0,0,1,17.816,26.794,4.487,4.487,0,0,1-3.98,6.548Z" fill="#b0ce47"/>
          <path id="Path_23" data-name="Path 23" d="M315.876,275.906a4.486,4.486,0,0,1-2.1-8.452h0c.865-.46,20.4-11.135,25.878-36.769-13.021-5.446-36.423-17.739-41.54-23.917a4.493,4.493,0,0,1-.962-2.082,22.319,22.319,0,0,1,1-11l-2.362-4.562A4.486,4.486,0,1,1,303.757,185l3.4,6.562a4.485,4.485,0,0,1-.173,4.428,10.925,10.925,0,0,0-1.119,5.912c5.763,5.206,29.041,17.543,40.427,21.771a4.485,4.485,0,0,1,2.872,4.892c-5.072,32.766-30.141,46.27-31.2,46.829A4.466,4.466,0,0,1,315.876,275.906Z" fill="#263238"/>
          <path id="Path_24" data-name="Path 24" d="M301.566,206.149a2.242,2.242,0,0,1-1.876-3.469c.155-.238,3.863-5.83,9.5-7.341a2.243,2.243,0,0,1,1.162,4.332c-3.939,1.056-6.881,5.418-6.91,5.462A2.24,2.24,0,0,1,301.566,206.149Z" fill="#263238"/>
          <path id="Path_25" data-name="Path 25" d="M332.768,416.238H297.979l18.436-10.457,15.455.6Z" fill="#263238"/>
          <g id="Group_16" data-name="Group 16">
            <ellipse id="Ellipse_3" data-name="Ellipse 3" cx="23.923" cy="21.531" rx="23.923" ry="21.531" transform="matrix(0.996, -0.088, 0.088, 0.996, 232.28, 241.485)" fill="#fff"/>
            <ellipse id="Ellipse_4" data-name="Ellipse 4" cx="6.574" cy="11.957" rx="6.574" ry="11.957" transform="matrix(0.962, -0.274, 0.274, 0.962, 242.578, 253.218)" fill="#263238"/>
            <path id="Path_26" data-name="Path 26" d="M230.795,264.86c15.1-1.944,45.006-10.466,49.94-13.9-3.888-11.364-21.959-21.082-38.128-15.608C228.032,240.282,230.795,264.86,230.795,264.86Z" fill="#263238"/>
            <path id="Path_27" data-name="Path 27" d="M233.734,272.16c18.742-3.562,43.113-9.543,50.084-13.375-.43,12.229-3.98,24.616-23.119,28.8C245.062,291.008,233.734,272.16,233.734,272.16Z" fill="#263238"/>
          </g>
          <g id="Group_17" data-name="Group 17">
            <ellipse id="Ellipse_5" data-name="Ellipse 5" cx="14.719" cy="18.626" rx="14.719" ry="18.626" transform="matrix(0.834, -0.552, 0.552, 0.834, 185.459, 260.948)" fill="#fff"/>
            <path id="Path_28" data-name="Path 28" d="M208.337,268.68c1.138,5.357.156,9.826-2.193,9.982s-5.176-4.062-6.313-9.419-.156-9.826,2.193-9.982S207.2,263.322,208.337,268.68Z" fill="#263238"/>
            <path id="Path_29" data-name="Path 29" d="M189.748,266.628c10.132,1.2,30.25-.137,33.593-1.967-2.47-9.7-14.454-20.672-25.342-19.265C188.185,246.664,189.748,266.628,189.748,266.628Z" fill="#263238"/>
            <path id="Path_30" data-name="Path 30" d="M191.63,272.942c12.588.573,28.973.251,33.684-1.522-.43,9.606-2.951,18.773-15.812,18.622C198.994,289.919,191.63,272.942,191.63,272.942Z" fill="#263238"/>
          </g>
          <path id="Path_31" data-name="Path 31" d="M264.088,229.3a56.448,56.448,0,0,1-32.058-9.8,4.485,4.485,0,0,1,5.41-7.156,48.964,48.964,0,0,0,35.838,7.111,4.486,4.486,0,0,1,1.672,8.814A58.192,58.192,0,0,1,264.088,229.3Z" fill="#263238"/>
          <path id="Path_32" data-name="Path 32" d="M183.878,221.566a4.484,4.484,0,0,1-4.221-6c2.378-6.62,6.321-10.918,11.72-12.774,9.787-3.371,20.327,3.183,20.771,3.464a4.485,4.485,0,0,1-4.779,7.592c-2.042-1.271-8.374-4.2-13.1-2.564-2.724.947-4.742,3.34-6.17,7.315A4.486,4.486,0,0,1,183.878,221.566Z" fill="#263238"/>
          <path id="Path_33" data-name="Path 33" d="M219.231,297.246a1.276,1.276,0,0,1-.374-.054,1.336,1.336,0,0,1-.921-1.642,8.786,8.786,0,0,1,4.562-4.929c5.146-2.653,12.988-2.1,23.309,1.632a1.346,1.346,0,0,1-.916,2.531c-11.835-4.287-17.978-3.36-21.049-1.827a6.245,6.245,0,0,0-3.318,3.33A1.358,1.358,0,0,1,219.231,297.246Z" fill="#263238"/>
          <g id="Group_20" data-name="Group 20">
            <g id="Group_18" data-name="Group 18">
              <path id="Path_34" data-name="Path 34" d="M176.882,292.32A119.357,119.357,0,0,0,132.1,305.47c7.728-1.459,35.355,32.728,42.458,59.1,13.1-4.859,28.382-8.167,44.678-10.751C209.362,326.637,191.313,295.852,176.882,292.32Z" fill="#b0ce47"/>
              <path id="Path_35" data-name="Path 35" d="M176.882,292.32A119.357,119.357,0,0,0,132.1,305.47c7.728-1.459,35.355,32.728,42.458,59.1,13.1-4.859,28.382-8.167,44.678-10.751C209.362,326.637,191.313,295.852,176.882,292.32Z" fill="#fff" opacity="0.6"/>
            </g>
            <g id="Group_19" data-name="Group 19">
              <path id="Path_36" data-name="Path 36" d="M176.882,292.32c-17.08-1.928-44.811,12.372-44.811,12.372-4.914,3.133-3.58,9.01-.9,11.49,2.572-3.691,31.233-13.294,42.007-14.583C167.817,296.64,172.8,293.043,176.882,292.32Z" fill="#b0ce47"/>
              <path id="Path_37" data-name="Path 37" d="M176.882,292.32c-17.08-1.928-44.811,12.372-44.811,12.372-4.914,3.133-3.58,9.01-.9,11.49,2.572-3.691,31.233-13.294,42.007-14.583C167.817,296.64,172.8,293.043,176.882,292.32Z" fill="#fff" opacity="0.2"/>
            </g>
          </g>
          <path id="Path_38" data-name="Path 38" d="M151.656,333.981a4.479,4.479,0,0,1-3.761-2.035c-3.253-4.984-1.221-12.59-.781-14.063a4.485,4.485,0,0,1,8.6,2.559c-.733,2.51-.881,5.717-.3,6.6a4.486,4.486,0,0,1-3.752,6.937Z" fill="#263238"/>
        </g>
      </g>
    </g>
    <text id="No_Data_Found" data-name="No Data Found" transform="translate(8470 3133)" fill="#d1d1d1" font-size="32" font-style="italic" font-family="'Roboto Condensed', sans-serif" font-weight="700"><tspan x="0" y="0">No Data Found</tspan></text>
  </g>
</svg>
