<svg width="330" height="201" viewBox="0 0 330 201" fill="none" xmlns="http://www.w3.org/2000/svg">
<path d="M0.99267 120.975C0.99267 120.975 0.99267 120.866 0.99267 120.975C2.5352 112.067 2.5352 111.958 3.74719 107.504C8.70533 90.122 16.5282 73.9352 25.6732 58.4001C32.6146 46.5587 41.3189 36.021 50.9046 26.2437C60.3801 16.575 71.0677 8.21002 83.8487 3.1041C91.7817 -0.155 99.7147 -1.45864 107.978 2.23501C116.903 6.25456 121.31 16.7923 121.09 26.7869C120.98 33.7396 119.327 40.5837 117.233 47.2106C115.691 51.9906 112.496 54.1633 108.529 53.1856C103.902 51.9906 101.808 48.7315 103.13 43.7342C104.452 38.5196 105.995 33.4137 106.436 28.0905C106.546 26.461 106.546 24.8314 106.326 23.3105C105.554 17.3355 102.139 14.4023 96.0787 14.7282C90.6799 15.0541 86.0523 17.4441 81.5349 20.2687C66.8808 29.1769 55.7526 41.6701 45.6159 55.0324C31.6229 73.6093 22.3678 94.4675 16.1976 116.738C14.2144 123.908 13.994 131.295 16.1976 138.465C18.6216 146.504 26.2241 150.524 34.5978 148.351C43.6327 145.961 51.2351 141.29 58.0663 135.315C70.5168 124.234 80.7636 111.198 90.2392 97.618C90.5697 97.1834 90.6799 96.6402 90.3493 95.8798C82.3061 96.097 74.1528 96.3143 65.9994 96.8575C57.4053 97.5093 55.422 95.4452 55.8627 86.8629V86.7543C57.4053 83.1693 60.3801 81.5397 64.3467 81.3225C77.5684 80.562 90.9002 79.6929 104.122 79.0411C111.835 78.7152 114.92 82.1916 113.708 89.4702C112.496 96.423 111.063 103.267 109.962 110.22C107.868 123.365 105.444 136.401 103.13 149.981C103.13 150.198 103.241 150.415 103.461 150.415C108.199 150.633 111.284 147.591 114.259 144.984C119.988 139.878 123.293 133.033 125.938 126.081C127.59 121.844 129.023 117.39 130.455 113.262C130.455 113.153 130.455 113.153 130.455 113.044C127.26 97.1834 134.862 81.9743 145.66 82.5175C145.77 82.5175 145.77 82.5175 145.881 82.5175C151.83 85.7766 151.72 89.7961 148.525 95.5539C147.203 98.0525 145.219 100.117 144.448 103.267C144.338 103.484 144.669 103.81 144.889 103.702C149.957 103.05 154.254 101.203 158.331 99.2475C164.832 95.9884 167.806 96.6402 170.561 103.05C170.781 103.484 170.781 103.919 170.671 104.353C166.925 117.281 160.755 129.448 158 143.028C157.89 143.354 158.221 143.571 158.551 143.463C163.179 141.724 166.925 139.009 169.9 135.315C173.756 130.426 177.172 125.212 179.926 119.563C185.215 108.59 193.258 100.225 204.827 95.3366C219.702 89.1443 236.78 96.6402 236.559 115.543C236.339 133.577 222.787 153.131 204.607 158.78C194.58 161.822 184.664 161.279 176.952 149.22C176.841 149.003 176.621 149.003 176.401 149.112C173.646 151.176 171.002 153.349 168.027 155.087C163.179 158.02 158 160.084 152.051 157.803C146.542 155.847 143.567 152.045 143.236 146.287C142.795 139.552 144.779 133.251 146.872 126.95C147.754 124.234 148.855 121.518 150.067 118.585C150.178 118.368 150.067 118.15 149.847 118.042C147.974 117.39 146.211 117.716 144.338 117.933C144.228 117.933 144.118 118.042 144.007 118.15C141.033 126.407 137.727 134.554 133.43 142.268C126.599 154.326 117.233 162.691 102.8 164.429C102.139 164.538 101.588 164.864 100.706 165.299C100.596 165.299 100.486 165.407 100.486 165.624C99.0536 173.229 97.4009 181.051 96.2991 188.873C95.7482 192.675 94.7566 196.043 92.4428 199.085C92.1122 199.519 91.4512 199.845 90.9002 199.845L85.3912 200.062C81.8654 200.062 80.2127 195.5 80.984 191.48C83.4079 178.226 85.8319 164.973 88.0355 151.719C89.7984 140.855 92.2224 130.1 93.214 119.128C93.4344 117.607 93.7649 115.869 93.7649 115.869C93.7649 115.869 92.6631 116.955 92.1122 117.607C91.341 118.368 90.5697 119.237 89.9086 120.106C83.5181 129.448 75.6953 137.813 67.3215 145.418C59.6089 152.479 51.125 158.346 40.8781 161.388C23.6899 166.494 9.36641 160.844 2.5352 144.875C0.551946 140.095 -0.329501 134.989 0.111223 129.774L0.99267 120.975ZM218.38 107.938H218.269C211.879 106.852 207.361 109.677 203.064 113.153C195.903 118.911 191.716 126.515 189.732 135.206C188.961 138.683 189.732 142.268 192.487 144.549C195.462 147.156 199.208 146.07 202.293 144.549C213.201 138.9 220.142 130.209 221.685 117.933C222.126 114.131 222.566 110.22 218.38 107.938Z" fill="#343233"/>
<path d="M268.733 152.588C267.851 151.719 266.419 151.502 265.317 152.262C262.122 154.652 258.926 156.934 255.07 158.237C243.06 162.365 236.56 154.109 235.789 145.31C235.348 139.878 236.56 134.663 238.213 129.557C241.408 120.106 244.713 110.763 247.798 101.312C248.9 97.8353 250.443 94.9021 254.85 94.359C255.18 94.359 255.511 94.359 255.841 94.4676C262.562 96.3144 264.105 99.2476 261.681 106.2C257.825 117.499 253.638 128.579 250.443 140.095C249.892 142.159 252.095 144.115 254.079 143.028C255.841 142.159 257.164 140.53 258.376 139.009C262.562 134.12 266.529 129.014 269.284 123.148C271.377 118.802 274.242 116.847 279.641 118.042C279.861 118.042 279.971 118.15 280.191 118.259C281.293 118.802 282.395 119.997 283.497 121.518C283.717 121.735 283.827 122.061 283.827 122.387C285.039 128.254 280.963 133.142 280.081 138.683C279.751 140.638 279.53 142.376 280.302 144.115C280.742 145.31 282.064 145.961 283.276 145.635C288.124 144.44 291.32 140.855 294.074 136.944C301.126 127.059 305.643 115.76 310.381 104.679C312.254 100.225 314.017 95.7712 315.78 91.3171C316.551 89.3617 317.433 87.4062 319.195 86.1026C319.526 85.8853 319.967 85.668 320.407 85.668C327.239 84.9076 329.552 87.0803 329.002 94.1417C328.451 101.746 325.476 108.699 322.28 115.434C317.763 124.777 312.805 133.903 307.737 143.028C304.321 149.112 299.363 153.892 293.303 157.368C284.709 162.148 276.555 160.627 268.733 152.588Z" fill="#343233"/>
<path d="M262.122 77.7377C263.334 72.5231 266.639 68.5036 270.275 64.5926C272.369 62.4199 275.013 60.7904 276.886 56.7708C268.182 61.1163 263.665 67.9604 258.596 74.6958C255.842 70.3504 256.393 66.2222 257.384 62.3113C259.257 54.5981 264.436 48.949 270.606 44.3862C274.683 41.453 279.09 38.9544 283.938 37.1076C293.193 33.6312 301.897 29.3944 309.61 22.2244C311.042 25.3748 310.602 28.1994 310.602 30.9153C309.83 60.2472 286.252 77.8463 262.122 77.7377Z" fill="#BBD980"/>
<path d="M218.049 63.6146C216.176 59.8123 217.168 56.6619 217.498 52.0991C226.313 58.726 237.441 57.6396 245.925 63.6146C251.985 67.8514 254.85 73.3919 253.968 80.8878C249.561 77.7374 246.806 72.4142 240.195 72.4142C244.713 76.5424 249.891 79.3669 251.434 85.1247C250.773 85.3419 250.332 85.7765 250.112 86.5369H250.222C248.569 86.5369 246.917 86.3197 245.374 86.4283C236.009 87.1887 222.567 79.6928 219.592 67.4169C219.151 66.1132 219.481 67.1996 218.049 63.6146Z" fill="#BBD980"/>
<path d="M262.121 77.7374C286.251 77.846 309.94 60.2469 310.601 30.915C310.711 28.7423 309.609 21.7895 309.609 22.2241C314.567 33.9568 310.821 57.3137 302.007 67.6342C293.963 77.0856 283.937 82.8433 270.825 82.0829C267.189 81.8656 264.215 80.7792 262.121 77.7374Z" fill="#AECA72"/>
<path d="M217.277 61.4417C218.71 65.2439 218.82 65.2439 219.591 67.4167C223.558 79.4753 236.008 87.1885 245.373 86.3194C247.026 86.2108 248.569 86.2108 251.433 85.0158C250.111 88.7095 245.484 90.4476 242.288 90.7735C231.711 91.534 222.566 84.4726 219.371 73.0658C218.489 70.024 217.828 66.3303 217.277 61.4417Z" fill="#AECA72"/>
</svg>
