<svg width="17" height="15" viewBox="0 0 17 15" fill="none" xmlns="http://www.w3.org/2000/svg">
<path d="M15.5924 1.46793C14.7197 0.52134 13.5221 0 12.2201 0C11.2469 0 10.3556 0.307684 9.57098 0.914435C9.17506 1.2207 8.81631 1.59541 8.5 2.03275C8.18383 1.59553 7.82495 1.2207 7.4289 0.914435C6.64438 0.307684 5.7531 0 4.77988 0C3.47788 0 2.2802 0.52134 1.40744 1.46793C0.545101 2.40346 0.0700684 3.68154 0.0700684 5.06689C0.0700684 6.49276 0.601441 7.79797 1.74227 9.17458C2.76282 10.406 4.2296 11.656 5.92816 13.1035C6.50816 13.5978 7.16559 14.1581 7.84823 14.755C8.02857 14.9129 8.25998 14.9999 8.5 14.9999C8.7399 14.9999 8.97143 14.9129 9.15152 14.7552C9.83416 14.1582 10.492 13.5977 11.0722 13.1031C12.7705 11.6559 14.2373 10.406 15.2579 9.17445C16.3987 7.79797 16.9299 6.49276 16.9299 5.06676C16.9299 3.68154 16.4549 2.40346 15.5924 1.46793Z" fill="#C6C6CB"/>
</svg>
