<svg width="17" height="15" viewBox="0 0 17 15" fill="none" xmlns="http://www.w3.org/2000/svg">
<path d="M15.5224 1.46793C14.6496 0.52134 13.4521 0 12.1501 0C11.1768 0 10.2856 0.307684 9.50091 0.914435C9.10499 1.2207 8.74624 1.59541 8.42994 2.03275C8.11376 1.59553 7.75488 1.2207 7.35883 0.914435C6.57431 0.307684 5.68303 0 4.70981 0C3.40781 0 2.21013 0.52134 1.33737 1.46793C0.475033 2.40346 0 3.68154 0 5.06689C0 6.49276 0.531373 7.79797 1.6722 9.17458C2.69275 10.406 4.15953 11.656 5.8581 13.1035C6.43809 13.5978 7.09552 14.1581 7.77816 14.755C7.9585 14.9129 8.18991 14.9999 8.42994 14.9999C8.66983 14.9999 8.90137 14.9129 9.08145 14.7552C9.76409 14.1582 10.4219 13.5977 11.0022 13.1031C12.7005 11.6559 14.1672 10.406 15.1878 9.17445C16.3286 7.79797 16.8599 6.49276 16.8599 5.06676C16.8599 3.68154 16.3848 2.40346 15.5224 1.46793Z" fill="white"/>
</svg>
