<svg xmlns="http://www.w3.org/2000/svg" width="80.002" height="73.651" viewBox="0 0 80.002 73.651"><g transform="translate(-241 -219)"><path d="M79.712,58.273,73.136,36.385a6.831,6.831,0,0,0-8.508-4.577l-5.069,1.523a6.791,6.791,0,0,0,1.066-3.985L59.568,6.515A6.832,6.832,0,0,0,52.427.006L29.6,1.064A6.831,6.831,0,0,0,23.089,8.2l1.057,22.831a6.826,6.826,0,0,0,.208,1.383L9.913,30.912A6.831,6.831,0,0,0,2.41,37L.038,59.73a6.831,6.831,0,0,0,6.085,7.5L28.855,69.6a6.99,6.99,0,0,0,.721.037,6.831,6.831,0,0,0,6.781-6.123L38.112,46.71c.016.06.031.121.049.182l6.577,21.889a6.841,6.841,0,0,0,6.533,4.869,6.856,6.856,0,0,0,1.975-.292l21.889-6.576a6.84,6.84,0,0,0,4.577-8.508ZM28.328,6.445a2.129,2.129,0,0,1,1.485-.7L52.644,4.69l.1,0a2.144,2.144,0,0,1,2.139,2.044l1.057,22.831A2.146,2.146,0,0,1,53.9,31.8L31.069,32.86a2.146,2.146,0,0,1-2.24-2.042L27.771,7.988a2.132,2.132,0,0,1,.557-1.543ZM34.067,40.3,31.7,63.032a2.143,2.143,0,0,1-2.354,1.91L6.609,62.57A2.145,2.145,0,0,1,4.7,60.216L7.072,37.484a2.145,2.145,0,0,1,2.354-1.909l22.732,2.372A2.142,2.142,0,0,1,34.067,40.3Zm4.554,1.528.109-1.042a6.8,6.8,0,0,0-.585-3.562l9.989-.463-5.4,1.621a6.814,6.814,0,0,0-4.118,3.445ZM73.786,62.292,51.9,68.868a2.144,2.144,0,0,1-2.669-1.436L42.652,45.544a2.145,2.145,0,0,1,1.436-2.669L65.977,36.3a2.157,2.157,0,0,1,.619-.092,2.147,2.147,0,0,1,2.05,1.528l6.577,21.888a2.147,2.147,0,0,1-1.436,2.67Zm0,0" transform="translate(241 219.001)" fill="#fff"/><path d="M198.6,61.448c.038,0,.076,0,.114,0a2.342,2.342,0,0,0,2.227-2.451l-.261-5.459,5.533-.265a2.342,2.342,0,0,0-.225-4.679l-6.895.33a3.322,3.322,0,0,0-3.159,3.477l.326,6.821a2.343,2.343,0,0,0,2.338,2.231Zm0,0" transform="translate(75.69 178)" fill="#fff"/><path d="M66.923,247.682l-6.867-.7a3.321,3.321,0,0,0-3.641,2.968l-.692,6.794a2.342,2.342,0,0,0,2.093,2.567,2.28,2.28,0,0,0,.24.012,2.343,2.343,0,0,0,2.328-2.105l.553-5.438,5.511.561a2.342,2.342,0,0,0,.475-4.66Zm0,0" transform="translate(193.988 10.629)" fill="#fff"/><path d="M306.5,270.49l-6.607,1.994a3.325,3.325,0,0,0-2.221,4.14l1.973,6.538a2.342,2.342,0,0,0,4.485-1.354l-1.579-5.232,5.3-1.6a2.342,2.342,0,1,0-1.354-4.485Zm0,0" transform="translate(-10.035 -9.133)" fill="#fff"/></g></svg>