<svg width="21" height="20" viewBox="0 0 21 20" fill="none" xmlns="http://www.w3.org/2000/svg">
<path d="M20.3794 15.5116L18.7026 9.93085C18.5687 9.48515 18.2693 9.11851 17.8596 8.898C17.45 8.67764 16.9789 8.63002 16.5334 8.76385L15.241 9.15212C15.428 8.85956 15.5301 8.50863 15.5128 8.13608L15.2433 2.31509C15.2217 1.85026 15.0204 1.42183 14.6767 1.10841C14.3327 0.794993 13.8874 0.634237 13.4227 0.655713L7.6017 0.925403C7.13701 0.946879 6.70843 1.1481 6.39501 1.49202C6.08159 1.83578 5.92084 2.28117 5.94247 2.74585L6.212 8.56699C6.21761 8.68838 6.23597 8.80618 6.26507 8.91963L2.58309 8.5354C2.12043 8.48716 1.66664 8.62193 1.30529 8.91496C0.943939 9.20799 0.718445 9.62428 0.670047 10.0869L0.0653059 15.8829C0.0169079 16.3455 0.151831 16.7995 0.444864 17.1608C0.737898 17.522 1.15418 17.7477 1.61684 17.7959L7.41277 18.4006C7.47424 18.407 7.53571 18.4101 7.59672 18.4101C7.99448 18.4101 8.37731 18.2751 8.69057 18.0211C9.05192 17.7279 9.27742 17.3118 9.32566 16.849L9.77291 12.5635C9.77711 12.5789 9.78085 12.5944 9.78552 12.6099L11.4623 18.1907C11.5962 18.6363 11.8954 19.0031 12.3052 19.2234C12.5624 19.3619 12.8439 19.4321 13.1281 19.4321C13.2965 19.4321 13.4658 19.4074 13.6315 19.3576L19.2124 17.6809C20.1321 17.4045 20.6556 16.4314 20.3794 15.5116ZM7.27832 2.2972C7.37667 2.18935 7.51112 2.12617 7.65694 2.11948L13.4781 1.84979C13.4866 1.84948 13.4954 1.84917 13.5039 1.84917C13.6402 1.84917 13.77 1.89928 13.8715 1.99187C13.9793 2.09022 14.0424 2.22452 14.0492 2.37034L14.3187 8.19148C14.3327 8.49245 14.0992 8.7486 13.7983 8.76261L7.97721 9.03214C7.67546 9.04537 7.42009 8.81256 7.40608 8.51159L7.13639 2.69061C7.1297 2.54479 7.18012 2.40504 7.27832 2.2972ZM8.74162 10.9292L8.13687 16.7249C8.12178 16.8701 8.05097 17.0007 7.93768 17.0927C7.82423 17.1846 7.68168 17.2268 7.5368 17.2119L1.74087 16.6071C1.59568 16.5919 1.46511 16.5212 1.3733 16.4078C1.28132 16.2945 1.239 16.1521 1.25409 16.0069L1.85883 10.211C1.87408 10.0658 1.94473 9.93521 2.05818 9.84339C2.17147 9.75142 2.31387 9.70909 2.45906 9.72418L8.25483 10.3289C8.40003 10.344 8.53059 10.4148 8.62257 10.5281C8.71454 10.6416 8.75671 10.784 8.74162 10.9292ZM9.9027 11.3188L9.93056 11.0532C9.96339 10.7374 9.91095 10.426 9.78147 10.1451L12.3284 10.0272L10.9525 10.4405C10.4791 10.5827 10.1112 10.9099 9.9027 11.3188ZM18.8685 16.5362L13.2876 18.2128C13.148 18.2548 13 18.2399 12.8716 18.1706C12.7431 18.1015 12.6491 17.9865 12.6071 17.8466L10.9304 12.2659C10.8436 11.9774 11.0079 11.6721 11.2964 11.5854L16.8773 9.9086C16.9293 9.89303 16.9823 9.88525 17.0353 9.88525C17.1244 9.88525 17.2127 9.90735 17.2934 9.95077C17.422 10.0199 17.5158 10.1349 17.5578 10.2748L19.2346 15.8555C19.3212 16.1442 19.157 16.4493 18.8685 16.5362Z" fill="white"/>
<path d="M8.54208 5.87089C8.55173 5.87089 8.56138 5.87058 8.57118 5.87011C8.90079 5.85439 9.15538 5.57428 9.13951 5.24467L9.0729 3.85171L10.4847 3.78402C10.8143 3.7683 11.0687 3.48818 11.053 3.15842C11.0373 2.82882 10.7583 2.57376 10.4274 2.5901L8.66829 2.67429C8.44217 2.68518 8.2338 2.78338 8.0816 2.95098C7.92941 3.11859 7.85144 3.33537 7.86233 3.56148L7.94559 5.30179C7.961 5.62174 8.22524 5.87089 8.54208 5.87089Z" fill="white"/>
<path d="M5.13617 10.6755L3.38404 10.4972C3.15917 10.4741 2.93819 10.5403 2.76265 10.6833C2.58711 10.8265 2.47802 11.0292 2.45499 11.2544L2.27851 12.9879C2.24506 13.3162 2.48424 13.6094 2.8126 13.6429C2.83315 13.6451 2.85353 13.646 2.87392 13.646C3.17676 13.646 3.43633 13.4166 3.46777 13.1088L3.60891 11.7214L5.0151 11.8646C5.34299 11.8982 5.6368 11.659 5.67011 11.3305C5.70372 11.0022 5.46453 10.709 5.13617 10.6755Z" fill="white"/>
<path d="M14.1979 11.4515L12.512 11.9604C12.0646 12.0953 11.8103 12.569 11.9454 13.0166L12.4489 14.6847C12.5268 14.943 12.764 15.1097 13.0208 15.1097C13.0779 15.1097 13.1361 15.1014 13.1937 15.084C13.5097 14.9888 13.6885 14.6553 13.5931 14.3392L13.1902 13.0041L14.5434 12.5958C14.8593 12.5004 15.0381 12.1669 14.9428 11.8508C14.8474 11.5349 14.5136 11.356 14.1979 11.4515Z" fill="white"/>
</svg>
