<svg xmlns="http://www.w3.org/2000/svg" width="16" height="13.813" viewBox="0 0 16 13.813"><g transform="translate(1.375 -1)"><path d="M280.274,0H267.727A1.729,1.729,0,0,0,266,1.727V4.144a1.729,1.729,0,0,0,1.727,1.727h12.547A1.729,1.729,0,0,0,282,4.144V1.727A1.729,1.729,0,0,0,280.274,0Zm.576,4.144a.576.576,0,0,1-.576.576H267.727a.576.576,0,0,1-.576-.576V1.727a.576.576,0,0,1,.576-.576h12.547a.576.576,0,0,1,.576.576Z" transform="translate(-267.375 1)" fill="#666"/><path d="M280.274,277H267.727A1.729,1.729,0,0,0,266,278.727v2.417a1.729,1.729,0,0,0,1.727,1.727h12.547A1.729,1.729,0,0,0,282,281.144v-2.417A1.729,1.729,0,0,0,280.274,277Zm.576,4.144a.576.576,0,0,1-.576.576H267.727a.576.576,0,0,1-.576-.576v-2.417a.576.576,0,0,1,.576-.576h12.547a.576.576,0,0,1,.576.576Z" transform="translate(-267.375 -268.058)" fill="#666"/></g></svg>
