<svg width="21" height="21" viewBox="0 0 21 21" fill="none" xmlns="http://www.w3.org/2000/svg">
<path d="M7.75423 18.3761H12.7542C16.9209 18.3761 18.5876 16.7095 18.5876 12.5428V7.54281C18.5876 3.37614 16.9209 1.70947 12.7542 1.70947H7.75423C3.58757 1.70947 1.9209 3.37614 1.9209 7.54281V12.5428C1.9209 16.7095 3.58757 18.3761 7.75423 18.3761Z" stroke="white" stroke-width="1.5" stroke-linecap="round" stroke-linejoin="round"/>
<path d="M1.9209 10.8765H5.05423C5.68757 10.8765 6.26257 11.2348 6.5459 11.8015L7.28756 13.2932C7.75423 14.2098 8.58756 14.2098 8.78756 14.2098H11.7292C12.3626 14.2098 12.9376 13.8515 13.2209 13.2848L13.9626 11.7932C14.2459 11.2265 14.8209 10.8682 15.4542 10.8682H18.5709" stroke="white" stroke-width="1.5" stroke-linecap="round" stroke-linejoin="round"/>
<path d="M8.87109 5.87646H11.6461" stroke="white" stroke-width="1.5" stroke-linecap="round" stroke-linejoin="round"/>
<path d="M8.1709 8.37646H12.3376" stroke="white" stroke-width="1.5" stroke-linecap="round" stroke-linejoin="round"/>
</svg>
