<svg width="32" height="31" viewBox="0 0 32 31" fill="none" xmlns="http://www.w3.org/2000/svg">
<path d="M28.9704 0.269531H10.8335C10.2006 0.269531 9.59361 0.520957 9.14607 0.968499C8.69853 1.41604 8.4471 2.02304 8.4471 2.65596V8.38337H3.19697C2.56405 8.38337 1.95706 8.6348 1.50951 9.08234C1.06197 9.52988 0.810547 10.1369 0.810547 10.7698L0.810547 24.1338C0.810547 24.7667 1.06197 25.3737 1.50951 25.8212C1.95706 26.2688 2.56405 26.5202 3.19697 26.5202H8.92439V28.4293C8.92439 29.0623 9.17582 29.6693 9.62336 30.1168C10.0709 30.5643 10.6779 30.8158 11.3108 30.8158H13.22C13.8529 30.8158 14.4599 30.5643 14.9074 30.1168C15.355 29.6693 15.6064 29.0623 15.6064 28.4293V26.5202H21.3338C21.6472 26.5202 21.9575 26.4585 22.247 26.3385C22.5366 26.2186 22.7997 26.0428 23.0213 25.8212C23.2429 25.5996 23.4186 25.3366 23.5386 25.047C23.6585 24.7575 23.7202 24.4472 23.7202 24.1338V18.4064H28.9704C29.6033 18.4064 30.2103 18.1549 30.6578 17.7074C31.1054 17.2598 31.3568 16.6529 31.3568 16.0199V2.65596C31.3568 2.02304 31.1054 1.41604 30.6578 0.968499C30.2103 0.520957 29.6033 0.269531 28.9704 0.269531ZM13.6972 28.4293C13.6972 28.5559 13.647 28.6773 13.5574 28.7668C13.4679 28.8563 13.3465 28.9066 13.22 28.9066H11.3108C11.1842 28.9066 11.0628 28.8563 10.9733 28.7668C10.8838 28.6773 10.8335 28.5559 10.8335 28.4293V26.5202H13.6972V28.4293ZM21.8111 24.1338C21.8111 24.2604 21.7608 24.3818 21.6713 24.4713C21.5818 24.5608 21.4604 24.6111 21.3338 24.6111H3.19697C3.07039 24.6111 2.94899 24.5608 2.85948 24.4713C2.76997 24.3818 2.71969 24.2604 2.71969 24.1338V10.7698C2.71969 10.6432 2.76997 10.5218 2.85948 10.4323C2.94899 10.3428 3.07039 10.2925 3.19697 10.2925H21.3338C21.4604 10.2925 21.5818 10.3428 21.6713 10.4323C21.7608 10.5218 21.8111 10.6432 21.8111 10.7698V24.1338ZM29.4476 16.0199C29.4476 16.1465 29.3974 16.2679 29.3078 16.3574C29.2183 16.4469 29.0969 16.4972 28.9704 16.4972H23.7202V10.7698C23.7202 10.4564 23.6585 10.1461 23.5386 9.85655C23.4186 9.56702 23.2429 9.30394 23.0213 9.08234C22.7997 8.86074 22.5366 8.68496 22.247 8.56503C21.9575 8.4451 21.6472 8.38337 21.3338 8.38337H10.3562V2.65596C10.3562 2.52937 10.4065 2.40797 10.496 2.31846C10.5855 2.22896 10.7069 2.17867 10.8335 2.17867H28.9704C29.0969 2.17867 29.2183 2.22896 29.3078 2.31846C29.3974 2.40797 29.4476 2.52937 29.4476 2.65596V16.0199Z" fill="black"/>
<path d="M8.44694 20.7925H5.58323C5.33006 20.7925 5.08727 20.8931 4.90825 21.0721C4.72923 21.2511 4.62866 21.4939 4.62866 21.7471C4.62866 22.0002 4.72923 22.243 4.90825 22.422C5.08727 22.6011 5.33006 22.7016 5.58323 22.7016H8.44694C8.70011 22.7016 8.94291 22.6011 9.12192 22.422C9.30094 22.243 9.40151 22.0002 9.40151 21.7471C9.40151 21.4939 9.30094 21.2511 9.12192 21.0721C8.94291 20.8931 8.70011 20.7925 8.44694 20.7925Z" fill="black"/>
<path d="M12.2654 22.7016C12.7926 22.7016 13.2199 22.2742 13.2199 21.7471C13.2199 21.2199 12.7926 20.7925 12.2654 20.7925C11.7382 20.7925 11.3108 21.2199 11.3108 21.7471C11.3108 22.2742 11.7382 22.7016 12.2654 22.7016Z" fill="black"/>
</svg>
