<svg xmlns="http://www.w3.org/2000/svg" width="12.71" height="16.036" viewBox="0 0 12.71 16.036"><path d="M113.61,200.627a.606.606,0,0,0-.581-.627H107.04a.629.629,0,0,0,0,1.254h5.989A.606.606,0,0,0,113.61,200.627Z" transform="translate(-103.679 -193.737)" fill="#abc76e"/><path d="M107.086,280a.627.627,0,0,0,0,1.254h3.924a.627.627,0,0,0,0-1.254Z" transform="translate(-103.677 -271.232)" fill="#abc76e"/><path d="M31.17,14.783H29.075a1.254,1.254,0,0,1-1.253-1.253V2.506a1.254,1.254,0,0,1,1.253-1.253h7.7a1.254,1.254,0,0,1,1.253,1.253V6.358a.626.626,0,1,0,1.253,0V2.506A2.508,2.508,0,0,0,36.775,0h-7.7A2.508,2.508,0,0,0,26.57,2.506V13.53a2.508,2.508,0,0,0,2.505,2.506H31.17a.626.626,0,0,0,0-1.253Z" transform="translate(-26.57 0)" fill="#abc76e"/><path d="M31.17,14.783H29.075a1.254,1.254,0,0,1-1.253-1.253V2.506a1.254,1.254,0,0,1,1.253-1.253h7.7a1.254,1.254,0,0,1,1.253,1.253V6.358a.626.626,0,1,0,1.253,0V2.506A2.508,2.508,0,0,0,36.775,0h-7.7A2.508,2.508,0,0,0,26.57,2.506V13.53a2.508,2.508,0,0,0,2.505,2.506H31.17a.626.626,0,0,0,0-1.253Z" transform="translate(39.28 16.036) rotate(180)" fill="#abc76e"/><path d="M113.029,120H107.04a.629.629,0,0,0,0,1.254h5.989a.629.629,0,0,0,0-1.254Z" transform="translate(-103.679 -116.242)" fill="#abc76e"/></svg>
