<svg xmlns="http://www.w3.org/2000/svg" width="15.258" height="16.021" viewBox="0 0 15.258 16.021">
  <g id="notification" transform="translate(0 -3.6)">
    <path id="Path_2889" data-name="Path 2889" d="M136.193,419.433a2.864,2.864,0,0,1-2.861-2.861.572.572,0,1,1,1.144,0,1.717,1.717,0,0,0,3.433,0,.572.572,0,1,1,1.144,0A2.864,2.864,0,0,1,136.193,419.433Zm0,0" transform="translate(-128.564 -399.812)" fill="#cbccd0"/>
    <path id="Path_2890" data-name="Path 2890" d="M13.923,77.733H1.335a1.335,1.335,0,0,1-.868-2.35,5.113,5.113,0,0,0,1.822-3.915V69.341a5.34,5.34,0,0,1,10.681,0v2.127a5.112,5.112,0,0,0,1.814,3.91,1.335,1.335,0,0,1-.861,2.355ZM7.629,65.145a4.2,4.2,0,0,0-4.2,4.2v2.127a6.253,6.253,0,0,1-2.22,4.783.19.19,0,0,0-.069.147.193.193,0,0,0,.191.191H13.923a.193.193,0,0,0,.191-.191.188.188,0,0,0-.067-.145,6.254,6.254,0,0,1-2.222-4.785V69.341A4.2,4.2,0,0,0,7.629,65.145Zm0,0" transform="translate(0 -60.4)" fill="#cbccd0"/>
  </g>
</svg>
