<svg width="20" height="20" viewBox="0 0 20 20" fill="none" xmlns="http://www.w3.org/2000/svg">
<path d="M8.44492 15.5233V4.26578C8.44492 3.19703 7.99367 2.76953 6.85367 2.76953H3.97992C2.83992 2.76953 2.38867 3.19703 2.38867 4.26578V15.5233C2.38867 16.592 2.83992 17.0195 3.97992 17.0195H6.85367C7.99367 17.0195 8.44492 16.592 8.44492 15.5233Z" fill="white"/>
<path d="M16.6388 15.5233V4.26578C16.6388 3.19703 16.1875 2.76953 15.0475 2.76953H12.1738C11.0417 2.76953 10.5825 3.19703 10.5825 4.26578V15.5233C10.5825 16.592 11.0338 17.0195 12.1738 17.0195H15.0475C16.1875 17.0195 16.6388 16.592 16.6388 15.5233Z" fill="white"/>
</svg>
