<svg width="14" height="14" viewBox="0 0 14 14" fill="none" xmlns="http://www.w3.org/2000/svg">
<path d="M1.29557 9.56022C1.16526 9.56022 1.03521 9.51059 0.935699 9.41108C0.736929 9.21231 0.736929 8.8901 0.935699 8.69133L8.89006 0.736968C9.08857 0.538198 9.41103 0.538198 9.6098 0.736968C9.80857 0.935738 9.80857 1.25794 9.6098 1.45671L1.65544 9.41108C1.55619 9.51033 1.42588 9.56022 1.29557 9.56022Z" fill="#C1C1C1"/>
<path d="M0.510011 13.2273C0.474634 13.2273 0.438749 13.2234 0.402863 13.2158C0.127996 13.1568 -0.0471049 12.8862 0.0119407 12.6113L0.798367 8.94568C0.857413 8.67081 1.12923 8.49622 1.40282 8.55476C1.67769 8.6138 1.85279 8.88435 1.79374 9.15921L1.00732 12.8249C0.956161 13.0639 0.744921 13.2273 0.510011 13.2273Z" fill="#C1C1C1"/>
<path d="M4.17497 12.4408C4.04466 12.4408 3.91461 12.3912 3.81509 12.2917C3.61632 12.0929 3.61632 11.7707 3.81509 11.5719L11.7695 3.61783C11.968 3.41906 12.2904 3.41906 12.4892 3.61783C12.688 3.8166 12.688 4.1388 12.4892 4.33757L4.53509 12.2917C4.43558 12.3912 4.30527 12.4408 4.17497 12.4408Z" fill="#C1C1C1"/>
<path d="M0.508684 13.2259C0.273774 13.2259 0.0627874 13.0625 0.011377 12.8235C-0.0474141 12.5486 0.127432 12.2781 0.4023 12.219L4.06796 11.4326C4.34309 11.3743 4.61363 11.5489 4.67242 11.8235C4.73121 12.0984 4.55636 12.3689 4.2815 12.428L0.615831 13.2144C0.579946 13.2223 0.54406 13.2259 0.508684 13.2259Z" fill="#C1C1C1"/>
<path d="M10.6904 5.92406C10.5601 5.92406 10.4298 5.87443 10.3306 5.77492L7.45132 2.89568C7.25255 2.69691 7.25255 2.3747 7.45132 2.17593C7.64984 1.97716 7.97255 1.97716 8.17107 2.17593L11.0503 5.05517C11.2491 5.25394 11.2491 5.57615 11.0503 5.77492C10.951 5.87443 10.8207 5.92406 10.6904 5.92406Z" fill="#C1C1C1"/>
<path d="M12.1289 4.48594C11.9986 4.48594 11.8683 4.43631 11.7688 4.3368C11.57 4.13803 11.57 3.81582 11.7688 3.6168C12.0521 3.33353 12.2081 2.94999 12.2081 2.53718C12.2081 2.12437 12.0521 1.74083 11.7688 1.45756C11.4853 1.17404 11.1017 1.01803 10.6889 1.01803C10.2761 1.01803 9.89258 1.17404 9.60931 1.45756C9.4108 1.65633 9.08859 1.65659 8.88931 1.45756C8.69054 1.25879 8.69054 0.936586 8.88931 0.737561C9.36473 0.261888 10.0038 0 10.6889 0C11.3738 0 12.0131 0.261888 12.4885 0.737561C12.9642 1.21298 13.2261 1.85205 13.2261 2.53718C13.2261 3.22231 12.9642 3.86138 12.4885 4.3368C12.3895 4.43606 12.2592 4.48594 12.1289 4.48594Z" fill="#C1C1C1"/>
</svg>
