<svg width="23" height="24" viewBox="0 0 23 24" fill="none" xmlns="http://www.w3.org/2000/svg">
<path d="M21.3468 9.36111H1.88114V7.61348H15.0562C15.4536 7.61348 15.7756 7.29142 15.7756 6.8941V2.68157C15.7756 2.28425 15.4536 1.96219 15.0562 1.96219H1.88114V1.39613C1.88114 0.998814 1.55908 0.676758 1.16176 0.676758C0.764439 0.676758 0.442383 0.998814 0.442383 1.39613V22.9774C0.442383 23.3747 0.764439 23.6968 1.16176 23.6968C1.55908 23.6968 1.88114 23.3747 1.88114 22.9774V22.4114H10.7012C11.0985 22.4114 11.4206 22.0893 11.4206 21.692V17.4795C11.4206 17.0821 11.0985 16.7601 10.7012 16.7601H1.88114V15.0124H21.3468C21.7441 15.0124 22.0662 14.6904 22.0662 14.2931V10.0805C22.0662 9.68317 21.7442 9.36111 21.3468 9.36111ZM14.3369 3.40095V6.17473H1.88114V3.40095H14.3369ZM9.98185 18.1988V20.9726H1.88114V18.1988H9.98185ZM20.6275 13.5737H1.88114V10.7999H20.6274V13.5737H20.6275Z" fill="#565656"/>
</svg>
