<svg xmlns="http://www.w3.org/2000/svg" width="42.078" height="60.87" viewBox="0 0 42.078 60.87"><g transform="translate(-0.001 0)"><path d="M45.035,194.042A14.724,14.724,0,0,1,55.5,189.719a14.9,14.9,0,0,1,3.954.53l1.086-13.377a1.034,1.034,0,0,0-1.031-1.118H29.019a1.034,1.034,0,0,0-1.031,1.118l2.335,28.76a5.334,5.334,0,0,0,5.322,4.895h6.332a14.779,14.779,0,0,1,3.058-16.484Zm0,0" transform="translate(-24.657 -154.859)" fill="#ff6770"/><path d="M95.317,3.57H100.7a2.766,2.766,0,0,1,2.766,2.656h3.57A6.339,6.339,0,0,0,100.7,0H95.317A6.339,6.339,0,0,0,88.98,6.227h3.57A2.766,2.766,0,0,1,95.317,3.57Zm0,0" transform="translate(-78.401)" fill="#ff6770"/><path d="M39.2,88.9l-.6-3.609A3.458,3.458,0,0,0,35.188,82.4H4.027A3.458,3.458,0,0,0,.616,85.29L.013,88.9A.885.885,0,0,0,.887,89.93H38.329A.885.885,0,0,0,39.2,88.9Zm0,0" transform="translate(0 -72.606)" fill="#ff6770"/><path d="M176.154,322.98a11.236,11.236,0,1,0,11.236,11.236A11.236,11.236,0,0,0,176.154,322.98Zm4.93,16.152a1.788,1.788,0,0,1-2.524,0l-2.406-2.4-2.406,2.4a1.785,1.785,0,0,1-2.521-2.528l2.4-2.392-2.4-2.392a1.785,1.785,0,0,1,2.521-2.528l2.406,2.4,2.406-2.4a1.79,1.79,0,0,1,2.524,0c.019.019.035.039.053.059a1.784,1.784,0,0,1-.057,2.466l-2.4,2.392,2.4,2.392A1.786,1.786,0,0,1,181.084,339.132Zm0,0" transform="translate(-145.311 -284.582)" fill="#ff6770"/></g></svg>