<svg width="24" height="25" viewBox="0 0 24 25" fill="none" xmlns="http://www.w3.org/2000/svg">
<path d="M12.5935 4.69364C12.5634 4.68491 12.5354 4.68066 12.5079 4.68066C12.463 4.68066 12.4198 4.6924 12.3766 4.7162L11.5734 5.13753C11.47 5.17366 11.3798 5.26998 11.3483 5.37836C11.3271 5.4514 11.3311 5.53361 11.3595 5.60394C11.3911 5.68264 11.4488 5.73763 11.5219 5.75887C11.5389 5.76375 11.5586 5.76636 11.579 5.76636C11.6229 5.76636 11.6686 5.75457 11.7075 5.73311L11.7098 5.73187L11.8948 5.60088L10.9527 8.84471C10.9017 9.02055 11.0676 9.15556 11.2434 9.20663C11.2945 9.22147 11.3481 9.22932 11.3986 9.22932C11.5451 9.22932 11.6513 9.16479 11.6827 9.05664L12.8478 5.045C12.8937 4.88692 12.7515 4.73954 12.5935 4.69364Z" fill="#565656"/>
<path d="M8.17161 20.2596C8.14517 20.0961 8.01975 19.9681 7.88607 19.9681C7.87561 19.9681 7.86515 19.9689 7.85487 19.9705L6.06851 20.2595L6.0375 20.0679C5.99238 19.7887 6.30336 19.4859 6.66345 19.1353C7.16165 18.6503 7.78166 18.0467 7.65277 17.2497C7.548 16.6021 7.01431 16.167 6.32474 16.167C6.23937 16.167 6.1526 16.1741 6.06682 16.1879C5.31313 16.3099 4.82456 16.8952 4.93039 17.5494C4.96944 17.7906 5.08188 17.9129 5.26467 17.9129C5.28874 17.9129 5.3145 17.9107 5.34122 17.9064C5.58776 17.8665 5.71094 17.6931 5.68755 17.5485C5.65714 17.3604 5.69025 17.2054 5.78607 17.0876C5.87289 16.9809 6.00882 16.9099 6.17913 16.8824C6.2243 16.8751 6.26865 16.8714 6.31104 16.8714C6.66363 16.8714 6.86363 17.1317 6.90538 17.3898C6.97832 17.8405 6.55826 18.2657 6.11355 18.7158C5.65558 19.1792 5.18209 19.6585 5.26841 20.1923L5.36615 20.7966C5.38849 20.9348 5.54948 21.0094 5.68956 21.0094C5.70929 21.0094 5.72848 21.0079 5.74656 21.0049L7.96417 20.6462C8.10187 20.6239 8.20071 20.4397 8.17161 20.2596Z" fill="#565656"/>
<path d="M19.1767 18.1356C19.4589 17.9517 19.6246 17.5684 19.6246 17.0873C19.6246 16.3117 19.1825 15.9185 18.3106 15.9185C17.2285 15.9185 16.9399 16.6175 16.9399 17.0305C16.9399 17.3091 17.0243 17.3854 17.3325 17.3854C17.5722 17.3854 17.6937 17.2787 17.6937 17.0684C17.6937 16.8532 17.7996 16.5966 18.3043 16.5966C18.7092 16.5966 18.8897 16.783 18.8897 17.2009C18.8897 17.7391 18.6456 17.8494 18.2791 17.8494C18.1186 17.8494 18.0189 17.9709 18.0189 18.1664C18.0189 18.358 18.1186 18.4771 18.2791 18.4771C18.7664 18.4771 19.0033 18.6871 19.0033 19.1192V19.2391C19.0033 19.7556 18.7886 19.976 18.2854 19.976C17.8025 19.976 17.5864 19.7232 17.5864 19.4726C17.5864 19.2581 17.4763 19.1745 17.1937 19.1745C16.9351 19.1745 16.8389 19.2639 16.8389 19.5041C16.8389 19.7892 16.9636 20.0718 17.1811 20.2794C17.4423 20.5286 17.8219 20.6604 18.2791 20.6604C19.5706 20.6604 19.7634 19.7699 19.7634 19.2391V19.1192C19.7634 18.6565 19.5611 18.3183 19.1767 18.1356Z" fill="#565656"/>
<path d="M17.3158 3.73075C16.9886 3.13559 16.4492 2.70352 15.7969 2.51412L10.4205 0.952696C9.76824 0.763199 9.08131 0.839153 8.48615 1.1664C7.89099 1.49365 7.45892 2.03309 7.26951 2.6853L6.76264 4.43051C6.70988 4.61201 6.81434 4.80197 6.99589 4.85467C7.17735 4.90752 7.36734 4.80297 7.42005 4.62142L7.92693 2.87621C8.06532 2.39957 8.38106 2.00541 8.81595 1.76627C9.25085 1.52712 9.7528 1.47163 10.2295 1.61007L15.6059 3.17153C16.0825 3.30992 16.4767 3.62566 16.7159 4.06056C16.955 4.4955 17.0105 4.99745 16.8721 5.47409L15.3106 10.8505C15.0248 11.8345 13.9918 12.4024 13.008 12.1167L7.63161 10.5553C7.15497 10.4168 6.76081 10.1011 6.52166 9.66618C6.28252 9.23128 6.22703 8.72929 6.36546 8.2527L6.96894 6.1748C7.02165 5.99325 6.91724 5.8033 6.73569 5.75059C6.55428 5.69798 6.36423 5.8023 6.31152 5.98385L5.70805 8.06174C5.5186 8.71395 5.5945 9.40091 5.92175 9.99603C6.249 10.5912 6.78839 11.0233 7.44065 11.2127L12.8171 12.7741C13.053 12.8426 13.291 12.8753 13.5252 12.8753C14.6275 12.8753 15.6455 12.1519 15.9681 11.0415L17.5296 5.66509C17.719 5.01284 17.6431 4.32587 17.3158 3.73075Z" fill="#565656"/>
<path d="M12.3393 20.3917L11.4453 14.8649C11.2215 13.4808 9.91327 12.5371 8.52925 12.7609L3.0025 13.6549C2.33202 13.7633 1.74394 14.1263 1.34654 14.6771C0.949135 15.2279 0.79001 15.9005 0.898438 16.5709L1.19641 18.4132C1.2266 18.5998 1.40253 18.7264 1.58901 18.6964C1.77563 18.6662 1.90247 18.4904 1.87228 18.3038L1.57431 16.4616C1.49506 15.9716 1.61135 15.4802 1.90174 15.0777C2.19212 14.6752 2.62191 14.4099 3.11184 14.3306L8.63863 13.4366C9.65006 13.2731 10.606 13.9627 10.7696 14.9741L11.6636 20.5009C11.7428 20.9909 11.6265 21.4823 11.3361 21.8848C11.0457 22.2873 10.616 22.5526 10.126 22.6318L4.59927 23.5258C4.10929 23.6051 3.61785 23.4888 3.21534 23.1984C2.81287 22.908 2.54755 22.4782 2.46831 21.9883L2.12754 19.8816C2.09735 19.695 1.92147 19.5681 1.73494 19.5984C1.54832 19.6286 1.42148 19.8044 1.45167 19.991L1.79244 22.0976C1.90087 22.7681 2.26392 23.3562 2.81469 23.7536C3.25265 24.0696 3.76748 24.2349 4.2971 24.2349C4.43362 24.2349 4.57114 24.2239 4.70852 24.2017L10.2353 23.3078C10.9057 23.1994 11.4938 22.8363 11.8912 22.2855C12.2886 21.7347 12.4478 21.0622 12.3393 20.3917Z" fill="#565656"/>
<path d="M21.1003 12.9473H15.5017C14.0996 12.9473 12.959 14.0879 12.959 15.49V17.3582C12.959 17.5472 13.1123 17.7005 13.3013 17.7005C13.4903 17.7005 13.6436 17.5472 13.6436 17.3582V15.49C13.6436 14.4654 14.4771 13.6319 15.5017 13.6319H21.1003C22.1248 13.6319 22.9583 14.4654 22.9583 15.49V21.0886C22.9583 22.1131 22.1249 22.9466 21.1003 22.9466H15.5017C14.4772 22.9466 13.6436 22.1131 13.6436 21.0886V18.9556C13.6436 18.7666 13.4903 18.6133 13.3013 18.6133C13.1123 18.6133 12.959 18.7666 12.959 18.9556V21.0886C12.959 22.4906 14.0996 23.6312 15.5017 23.6312H21.1003C22.5023 23.6312 23.643 22.4906 23.643 21.0886V15.49C23.643 14.0879 22.5023 12.9473 21.1003 12.9473Z" fill="#565656"/>
</svg>
