<svg xmlns="http://www.w3.org/2000/svg" width="16.618" height="14.505" viewBox="0 0 16.618 14.505"><g transform="translate(0.327 -33.016)"><path d="M6.924,33.267a6.921,6.921,0,0,1,6.912,6.914V40.2l1.369-2.057a.441.441,0,0,1,.735.487l-1.987,2.988a.442.442,0,0,1-.314.193.318.318,0,0,1-.056,0,.432.432,0,0,1-.294-.114l-2.761-2.485a.442.442,0,0,1,.591-.656l1.834,1.657V40.18a6.039,6.039,0,1,0-1.77,4.265.441.441,0,1,1,.624.624,6.913,6.913,0,1,1-4.883-11.8Z" transform="translate(0)" fill="#666" stroke="#666" stroke-width="0.5"/></g></svg>