<svg xmlns="http://www.w3.org/2000/svg" width="25.208" height="24.798" viewBox="0 0 25.208 24.798"><g transform="translate(25.011 43.71) rotate(-128)"><g transform="translate(26.642 13.584)"><path d="M79.168,275.1a4.14,4.14,0,0,1-.436-.343.792.792,0,1,0-1.06,1.177,5.709,5.709,0,0,0,.6.476.792.792,0,1,0,.891-1.309Z" transform="translate(-77.41 -274.554)" fill="#2d3335"/></g><g transform="translate(23.999 0)"><g transform="translate(0)"><path d="M40.624,8.487A8.334,8.334,0,0,0,24,7.45a.792.792,0,0,0,1.573.187,6.751,6.751,0,0,1,13.463.851,6.884,6.884,0,0,1-5.081,6.68l.957-1.365a.792.792,0,1,0-1.3-.909l-1.987,2.835,0,.006a.787.787,0,0,0-.049.087c-.008.016-.019.032-.027.049s-.015.047-.023.07a.8.8,0,0,0-.024.078c0,.018,0,.036-.007.054a.792.792,0,0,0-.01.1s0,.006,0,.009c0,.019,0,.036.006.054a.758.758,0,0,0,.009.09c0,.025.012.049.019.073s.013.049.023.074a.744.744,0,0,0,.034.069c.011.023.023.045.036.066s.03.042.047.063.03.039.047.057a.781.781,0,0,0,.066.059c.013.011.025.025.039.035L34.6,18.848a.792.792,0,1,0,.932-1.28L34.34,16.7A8.468,8.468,0,0,0,40.624,8.487Z" transform="translate(-23.999)" fill="#2d3335"/></g></g><g transform="translate(24.396 10.327)"><g transform="translate(0)"><path d="M33.846,209.975c0-.014-.009-.027-.013-.041a.765.765,0,0,0-.04-.116s0-.01,0-.014a5.053,5.053,0,0,1-.221-.533.792.792,0,0,0-1.5.51,6.52,6.52,0,0,0,.266.651s0,.005,0,.008a.78.78,0,0,0,.1.177c.01.013.021.025.031.038a.787.787,0,0,0,.136.128l.017.014a.8.8,0,0,0,.184.091l.05.015a.786.786,0,0,0,.211.032h0a.794.794,0,0,0,.776-.634.777.777,0,0,0,0-.327Z" transform="translate(-32.026 -208.734)" fill="#2d3335"/></g></g></g></svg>