<svg width="19" height="22" viewBox="0 0 19 22" fill="none" xmlns="http://www.w3.org/2000/svg">
<path d="M10.4518 21.3357C14.6644 20.8638 18.0404 17.4963 18.5209 13.2837C19.1515 7.77559 14.8703 3.08684 9.50374 3.02678V0.55585C9.50374 0.418576 9.33215 0.34565 9.21632 0.431446L4.12862 4.16787C4.04282 4.23221 4.04282 4.35662 4.12862 4.42096L9.21632 8.15738C9.33215 8.24318 9.50374 8.16596 9.50374 8.03298V5.56634C13.2745 5.6264 16.2945 8.83517 16.0371 12.6703C15.8183 15.9691 13.1286 18.646 9.82976 18.8562C6.33357 19.0792 3.36074 16.5826 2.82881 13.2794C2.73014 12.666 2.19392 12.2198 1.57618 12.2198C0.808309 12.2198 0.207737 12.9019 0.327851 13.6612C1.07428 18.3671 5.41985 21.8976 10.4518 21.3357Z" fill="#565656"/>
</svg>
