<svg width="22" height="22" viewBox="0 0 22 22" fill="none" xmlns="http://www.w3.org/2000/svg">
<path d="M20.0044 6.23047H14.7544" stroke="white" stroke-width="1.5" stroke-miterlimit="10" stroke-linecap="round" stroke-linejoin="round"/>
<path d="M6.00439 6.23047H2.50439" stroke="white" stroke-width="1.5" stroke-miterlimit="10" stroke-linecap="round" stroke-linejoin="round"/>
<path d="M9.50439 9.29297C11.1958 9.29297 12.5669 7.92184 12.5669 6.23047C12.5669 4.5391 11.1958 3.16797 9.50439 3.16797C7.81302 3.16797 6.44189 4.5391 6.44189 6.23047C6.44189 7.92184 7.81302 9.29297 9.50439 9.29297Z" stroke="white" stroke-width="1.5" stroke-miterlimit="10" stroke-linecap="round" stroke-linejoin="round"/>
<path d="M20.0044 15.8555H16.5044" stroke="white" stroke-width="1.5" stroke-miterlimit="10" stroke-linecap="round" stroke-linejoin="round"/>
<path d="M7.75439 15.8555H2.50439" stroke="white" stroke-width="1.5" stroke-miterlimit="10" stroke-linecap="round" stroke-linejoin="round"/>
<path d="M13.0044 18.918C14.6958 18.918 16.0669 17.5468 16.0669 15.8555C16.0669 14.1641 14.6958 12.793 13.0044 12.793C11.313 12.793 9.94189 14.1641 9.94189 15.8555C9.94189 17.5468 11.313 18.918 13.0044 18.918Z" stroke="white" stroke-width="1.5" stroke-miterlimit="10" stroke-linecap="round" stroke-linejoin="round"/>
</svg>
