<svg width="21" height="22" viewBox="0 0 21 22" fill="none" xmlns="http://www.w3.org/2000/svg">
<path d="M19.6478 3.67892C19.6478 5.297 18.3362 6.60873 16.7181 6.60873C15.1 6.60873 13.7885 5.297 13.7885 3.67892C13.7885 2.061 15.1 0.749268 16.7181 0.749268C18.3362 0.749268 19.6478 2.061 19.6478 3.67892Z" fill="black"/>
<path d="M16.7182 7.28488C14.7295 7.28488 13.1124 5.66762 13.1124 3.67898C13.1124 1.6905 14.7295 0.0732422 16.7182 0.0732422C18.7068 0.0732422 20.3239 1.6905 20.3239 3.67898C20.3239 5.66762 18.7068 7.28488 16.7182 7.28488ZM16.7182 1.42541C15.4751 1.42541 14.4646 2.4369 14.4646 3.67898C14.4646 4.92122 15.4751 5.93271 16.7182 5.93271C17.9612 5.93271 18.9717 4.92122 18.9717 3.67898C18.9717 2.4369 17.9612 1.42541 16.7182 1.42541Z" fill="black"/>
<path d="M19.6478 18.1022C19.6478 19.7201 18.3362 21.0318 16.7181 21.0318C15.1 21.0318 13.7885 19.7201 13.7885 18.1022C13.7885 16.4841 15.1 15.1724 16.7181 15.1724C18.3362 15.1724 19.6478 16.4841 19.6478 18.1022Z" fill="black"/>
<path d="M16.7182 21.708C14.7295 21.708 13.1124 20.0907 13.1124 18.1022C13.1124 16.1136 14.7295 14.4963 16.7182 14.4963C18.7068 14.4963 20.3239 16.1136 20.3239 18.1022C20.3239 20.0907 18.7068 21.708 16.7182 21.708ZM16.7182 15.8485C15.4751 15.8485 14.4646 16.86 14.4646 18.1022C14.4646 19.3443 15.4751 20.3558 16.7182 20.3558C17.9612 20.3558 18.9717 19.3443 18.9717 18.1022C18.9717 16.86 17.9612 15.8485 16.7182 15.8485Z" fill="black"/>
<path d="M7.02792 10.8906C7.02792 12.5087 5.71619 13.8202 4.09811 13.8202C2.48019 13.8202 1.16846 12.5087 1.16846 10.8906C1.16846 9.2725 2.48019 7.96094 4.09811 7.96094C5.71619 7.96094 7.02792 9.2725 7.02792 10.8906Z" fill="black"/>
<path d="M4.09792 14.4964C2.10945 14.4964 0.492188 12.8793 0.492188 10.8906C0.492188 8.90201 2.10945 7.28491 4.09792 7.28491C6.08657 7.28491 7.70383 8.90201 7.70383 10.8906C7.70383 12.8793 6.08657 14.4964 4.09792 14.4964ZM4.09792 8.63708C2.85486 8.63708 1.84436 9.64841 1.84436 10.8906C1.84436 12.1329 2.85486 13.1442 4.09792 13.1442C5.34116 13.1442 6.35165 12.1329 6.35165 10.8906C6.35165 9.64841 5.34116 8.63708 4.09792 8.63708Z" fill="black"/>
<path d="M6.22644 10.4579C5.91266 10.4579 5.60796 10.2947 5.44208 10.0027C5.19597 9.57092 5.3475 9.02011 5.7793 8.77302L14.1437 4.00444C14.5755 3.75652 15.1263 3.90804 15.3734 4.34149C15.6195 4.77329 15.468 5.32409 15.0362 5.57119L6.67161 10.3398C6.53098 10.42 6.3778 10.4579 6.22644 10.4579Z" fill="black"/>
<path d="M14.5901 17.8948C14.4385 17.8948 14.2854 17.8568 14.1447 17.7766L5.78015 13.008C5.34835 12.7619 5.19699 12.2111 5.4431 11.7783C5.68821 11.3457 6.23984 11.1934 6.67263 11.4413L15.0372 16.2099C15.469 16.456 15.6204 17.0068 15.3743 17.4396C15.2075 17.7316 14.9028 17.8948 14.5901 17.8948Z" fill="black"/>
</svg>
