<svg width="25" height="25" viewBox="0 0 25 25" fill="none" xmlns="http://www.w3.org/2000/svg">
<path d="M12.2544 23.293C7.01439 23.293 2.75439 19.033 2.75439 13.793C2.75439 8.55297 7.01439 4.29297 12.2544 4.29297C17.4944 4.29297 21.7544 8.55297 21.7544 13.793C21.7544 19.033 17.4944 23.293 12.2544 23.293ZM12.2544 5.79297C7.84439 5.79297 4.25439 9.38297 4.25439 13.793C4.25439 18.203 7.84439 21.793 12.2544 21.793C16.6644 21.793 20.2544 18.203 20.2544 13.793C20.2544 9.38297 16.6644 5.79297 12.2544 5.79297Z" fill="#565656"/>
<path d="M12.2544 14.293C11.8444 14.293 11.5044 13.953 11.5044 13.543V8.54297C11.5044 8.13297 11.8444 7.79297 12.2544 7.79297C12.6644 7.79297 13.0044 8.13297 13.0044 8.54297V13.543C13.0044 13.953 12.6644 14.293 12.2544 14.293Z" fill="#565656"/>
<path d="M15.2544 3.29297H9.25439C8.84439 3.29297 8.50439 2.95297 8.50439 2.54297C8.50439 2.13297 8.84439 1.79297 9.25439 1.79297H15.2544C15.6644 1.79297 16.0044 2.13297 16.0044 2.54297C16.0044 2.95297 15.6644 3.29297 15.2544 3.29297Z" fill="#565656"/>
</svg>
