<svg xmlns="http://www.w3.org/2000/svg" width="45.004" height="33.908" viewBox="0 0 45.004 33.908"><g transform="translate(0 -46)"><path d="M62.1,181h8.83a1.1,1.1,0,0,0,1.1-1.1V167.1a1.1,1.1,0,0,0-1.1-1.1H62.1a1.1,1.1,0,0,0-1.1,1.1V179.9A1.1,1.1,0,0,0,62.1,181Zm8.564-1.37H67.623V167.37h3.045Zm-8.3-12.259h3.045V179.63H62.37Z" transform="translate(-54.638 -108)" fill="#abc76e"/><path d="M302.1,181h8.83a1.1,1.1,0,0,0,1.1-1.1V167.1a1.1,1.1,0,0,0-1.1-1.1H302.1a1.1,1.1,0,0,0-1.1,1.1V179.9A1.1,1.1,0,0,0,302.1,181Zm8.564-1.37h-3.045V167.37h3.045Zm-8.3-12.259h3.045V179.63H302.37Z" transform="translate(-273.543 -108)" fill="#abc76e"/><circle cx="1.5" cy="1.5" r="1.5" transform="translate(21 59.5)" fill="#abc76e"/><circle cx="1.5" cy="1.5" r="1.5" transform="translate(21 68.5)" fill="#abc76e"/><path d="M43.685,51.274H33.865l-2.273-4.545A1.319,1.319,0,0,0,30.413,46H14.591a1.319,1.319,0,0,0-1.179.729l-2.273,4.545H1.318A1.319,1.319,0,0,0,0,52.592V79.908H45V52.592A1.319,1.319,0,0,0,43.685,51.274ZM15.406,48.637H29.6l1.318,2.637H14.088Zm17.636,5.274h9.325V77.1H2.637V53.911Z" fill="#abc76e"/></g></svg>