<svg xmlns="http://www.w3.org/2000/svg" width="30.456" height="45" viewBox="0 0 30.456 45"><g transform="translate(709.175 -247.539) rotate(90)"><path d="M.833,115.825H5.389v-9.043a.755.755,0,0,1,.755-.755h4.747a.755.755,0,0,1,.755.755v9.043h2.8V87.635a.756.756,0,0,1,.755-.755h4.747a.756.756,0,0,1,.755.755v28.19h2.8V99.2a.756.756,0,0,1,.755-.755H29a.756.756,0,0,1,.755.755v16.63h2.8V91.309a.756.756,0,0,1,.755-.755h4.747a.756.756,0,0,1,.755.755v24.516s2.438.024,4.3,0c1.142-.015,1.433.006,1.433.689s-.261.822-.678.822H.833a.755.755,0,0,1,0-1.511Zm36.466,0V92.065H34.063v23.76Zm-9.055,0V99.951H25.009v15.874h3.236Zm-9.055,0V88.39H15.954v27.435H19.19Zm-9.055,0v-8.288H6.9v8.288Z" transform="translate(247.461 591.839)" fill="#abc76e"/><path d="M22.1,116.122H17.552s-38.809,1.507-.754,1.507h5.3a.754.754,0,0,0,0-1.507Z" transform="translate(269.688 591.546)" fill="#abc76e"/></g></svg>