<svg xmlns="http://www.w3.org/2000/svg" width="45" height="30" viewBox="0 0 45 30"><g transform="translate(0 -16)"><path d="M41.25,16H3.75A3.754,3.754,0,0,0,0,19.75v22.5A3.754,3.754,0,0,0,3.75,46h37.5A3.754,3.754,0,0,0,45,42.25V19.75A3.754,3.754,0,0,0,41.25,16ZM2.75,18.75H20.625v24.5H2.75Zm21.625,24.5V18.75H42.25v24.5Z" fill="#abc76e"/><path d="M16.51,28A4.51,4.51,0,0,0,12,32.5v6a4.51,4.51,0,0,0,9.019,0v-6A4.51,4.51,0,0,0,16.51,28Zm1.5,10.5a1.5,1.5,0,0,1-3.006,0v-6a1.5,1.5,0,0,1,3.006,0Z" transform="translate(-4.5 -4.5)" fill="#abc76e"/><path d="M64.51,28A4.51,4.51,0,0,0,60,32.5v6a4.51,4.51,0,0,0,9.019,0v-6A4.51,4.51,0,0,0,64.51,28Zm1.5,10.5a1.5,1.5,0,0,1-3.006,0v-6a1.5,1.5,0,0,1,3.006,0Z" transform="translate(-31.5 -4.5)" fill="#abc76e"/></g></svg>