<svg xmlns="http://www.w3.org/2000/svg" width="45" height="41.25" viewBox="0 0 45 41.25"><g transform="translate(0 0)"><path d="M207.365,180.063a4.7,4.7,0,1,1,4.7-4.7A4.7,4.7,0,0,1,207.365,180.063Zm0-6.576a1.879,1.879,0,1,0,1.879,1.879A1.881,1.881,0,0,0,207.365,173.487Zm0,0" transform="translate(-184.865 -155.677)" fill="#abc76e"/><path d="M166.713,308.063a1.41,1.41,0,0,1-1.409-1.409v-2.819a2.352,2.352,0,0,0-2.349-2.349H154.5a2.352,2.352,0,0,0-2.349,2.349v2.819a1.409,1.409,0,1,1-2.819,0v-2.819a5.171,5.171,0,0,1,5.167-5.167h8.456a5.171,5.171,0,0,1,5.167,5.167v2.819A1.41,1.41,0,0,1,166.713,308.063Zm0,0" transform="translate(-136.227 -272.45)" fill="#abc76e"/><path d="M39.844,41.25H5.156A5.16,5.16,0,0,1,0,36.094V5.156A5.161,5.161,0,0,1,5.156,0H39.844A5.161,5.161,0,0,1,45,5.156V36.094A5.16,5.16,0,0,1,39.844,41.25ZM5.156,2.812A2.347,2.347,0,0,0,2.813,5.156V36.094a2.347,2.347,0,0,0,2.344,2.344H39.844a2.347,2.347,0,0,0,2.344-2.344V5.156a2.347,2.347,0,0,0-2.344-2.344Zm0,0" fill="#abc76e"/><path d="M43.594,88.151H1.406a1.409,1.409,0,0,1,0-2.819H43.594a1.409,1.409,0,0,1,0,2.819Zm0,0" transform="translate(0 -77.833)" fill="#abc76e"/></g></svg>