<svg xmlns="http://www.w3.org/2000/svg" width="45" height="25.629" viewBox="0 0 45 25.629"><g transform="translate(0 0)"><path d="M216.536,5.468a12.43,12.43,0,0,0-2.86,3.55,1.321,1.321,0,0,0,1.207,1.858h4.591a1.321,1.321,0,1,0,0-2.642H217.5c.289-.3.59-.59.879-.87,1.3-1.26,2.419-2.348,2.419-3.709a3.653,3.653,0,0,0-7.018-1.421,1.321,1.321,0,1,0,2.434,1.026,1.011,1.011,0,0,1,1.942.369,8.4,8.4,0,0,1-1.617,1.84Zm0,0" transform="translate(-194.799)" fill="#abc76e"/><path d="M2.9,5.476l.559-.56V8.592H2.538a1.321,1.321,0,1,0,0,2.642H7.026a1.321,1.321,0,0,0,0-2.642H6.1V1.725A1.321,1.321,0,0,0,3.848.791L1.033,3.609A1.321,1.321,0,1,0,2.9,5.476Zm0,0" transform="translate(-0.59 -0.369)" fill="#abc76e"/><path d="M425.044,147.07a4.007,4.007,0,1,0,4,4.007A3.978,3.978,0,0,0,425.044,147.07Zm.964,4.972a1.365,1.365,0,1,1,.4-.965A1.355,1.355,0,0,1,426.008,152.042Zm0,0" transform="translate(-384.049 -134.155)" fill="#abc76e"/><path d="M213.376,155.086a4.006,4.006,0,0,0,0-8.013h0a4.006,4.006,0,0,0,0,8.013Zm-.964-4.972a1.365,1.365,0,1,1-.4.965A1.354,1.354,0,0,1,212.413,150.115Zm0,0" transform="translate(-190.977 -134.159)" fill="#abc76e"/><path d="M111.515,180.988a1.246,1.246,0,1,0-1.246,1.247A1.246,1.246,0,0,0,111.515,180.988Zm0,0" transform="translate(-99.442 -163.947)" fill="#abc76e"/><path d="M166.019,180.988a1.246,1.246,0,1,0-1.246,1.247A1.246,1.246,0,0,0,166.019,180.988Zm0,0" transform="translate(-149.156 -163.947)" fill="#abc76e"/><path d="M320.168,180.988a1.246,1.246,0,1,0-1.246,1.247A1.246,1.246,0,0,0,320.168,180.988Zm0,0" transform="translate(-289.759 -163.947)" fill="#abc76e"/><path d="M374.672,180.988a1.246,1.246,0,1,0-1.246,1.247A1.246,1.246,0,0,0,374.672,180.988Zm0,0" transform="translate(-339.473 -163.947)" fill="#abc76e"/><path d="M211.819,261.6h-6.568a1.321,1.321,0,0,0,0,2.642h6.568a1.321,1.321,0,0,0,0-2.642Zm0,0" transform="translate(-186.016 -238.615)" fill="#abc76e"/><path d="M6.8,144.993l-3.66,3.671-.889-.889a1.321,1.321,0,1,0-1.869,1.867l1.824,1.825a1.32,1.32,0,0,0,.934.387h0a1.32,1.32,0,0,0,.935-.388l4.595-4.608A1.321,1.321,0,0,0,6.8,144.993Zm0,0" transform="translate(0 -131.905)" fill="#abc76e"/><path d="M430.165,11.332a3.669,3.669,0,0,0,3.653-3.617,3.987,3.987,0,0,0-1.046-2.85,3.342,3.342,0,0,0-.629-.506l1.323-1.783A1.321,1.321,0,0,0,432.405.469h-3.96a1.321,1.321,0,1,0,0,2.642h1.335l-.893,1.2a1.321,1.321,0,0,0,1.06,2.108,1.268,1.268,0,0,1,.931.286,1.368,1.368,0,0,1,.3.934,1.041,1.041,0,0,1-1.012,1.049,1.008,1.008,0,0,1-.93-.617A1.321,1.321,0,1,0,426.8,9.1a3.643,3.643,0,0,0,3.364,2.232Zm0,0" transform="translate(-389.208 -0.427)" fill="#abc76e"/></g></svg>