<svg xmlns="http://www.w3.org/2000/svg" width="41.881" height="45" viewBox="0 0 41.881 45"><g transform="translate(-20)"><g transform="translate(20)"><g transform="translate(0)"><path d="M385.318,16.8l5.057,4.217a1.862,1.862,0,1,0,2.386-2.861L387.7,13.941a1.862,1.862,0,1,0-2.386,2.861Z" transform="translate(-352.764 -12.251)" fill="#abc76e"/><path d="M34.909,21.452A1.855,1.855,0,0,0,36.1,21.02L41.157,16.8a1.862,1.862,0,1,0-2.386-2.861l-5.057,4.217a1.862,1.862,0,0,0,1.194,3.293Z" transform="translate(-31.83 -12.252)" fill="#abc76e"/><path d="M55.747,9.591a20.868,20.868,0,0,0-13.032-6V1.758a1.775,1.775,0,0,0-3.549,0V3.59a20.868,20.868,0,0,0-13.032,6,20.6,20.6,0,0,0,0,29.334A21.093,21.093,0,0,0,53.35,40.966a1.747,1.747,0,0,0,.376-2.458,1.786,1.786,0,0,0-2.481-.372,17.2,17.2,0,1,1,7.086-13.878,17.112,17.112,0,0,1-2.144,8.293,1.749,1.749,0,0,0,.7,2.388,1.784,1.784,0,0,0,2.41-.692,20.6,20.6,0,0,0-3.55-24.655Z" transform="translate(-20)" fill="#abc76e"/><path d="M228.8,151.562a1.863,1.863,0,0,0-2.619.276l-5.872,7.257a3.729,3.729,0,1,0,2.895,2.344l5.873-7.257A1.862,1.862,0,0,0,228.8,151.562Z" transform="translate(-198.99 -138.239)" fill="#abc76e"/></g></g></g></svg>