<svg xmlns="http://www.w3.org/2000/svg" width="55" height="55" viewBox="0 0 55 55"><g transform="translate(5 5)"><circle cx="27.5" cy="27.5" r="27.5" transform="translate(-5 -5)" fill="#c7c8cb" opacity="0.4"/><path d="M22.5,0A22.5,22.5,0,1,0,45,22.5,22.525,22.525,0,0,0,22.5,0Z" fill="#abc76e"/><path d="M18.927,24.621a1.555,1.555,0,0,0-2.079-1.257.778.778,0,0,1-.95-.427,7.037,7.037,0,0,0-.706-1.227.758.758,0,0,1,.106-1.04,1.522,1.522,0,0,0,.558-1.213,1.552,1.552,0,0,0-.619-1.212,9.52,9.52,0,0,0-2.048-1.183,1.575,1.575,0,0,0-.612-.124,1.534,1.534,0,0,0-1.522,1.282.759.759,0,0,1-.851.611,6.723,6.723,0,0,0-1.406,0,.76.76,0,0,1-.851-.611,1.534,1.534,0,0,0-1.522-1.282,1.569,1.569,0,0,0-.611.124,9.472,9.472,0,0,0-2.049,1.183,1.553,1.553,0,0,0-.618,1.211,1.526,1.526,0,0,0,.558,1.215.756.756,0,0,1,.106,1.038A7.041,7.041,0,0,0,3.1,22.936a.756.756,0,0,1-.959.424,1.539,1.539,0,0,0-2.07,1.261A9.49,9.49,0,0,0,0,25.812,9.352,9.352,0,0,0,.077,27a1.555,1.555,0,0,0,2.079,1.257.778.778,0,0,1,.95.427,7.037,7.037,0,0,0,.706,1.227.758.758,0,0,1-.106,1.04,1.522,1.522,0,0,0-.558,1.213,1.552,1.552,0,0,0,.619,1.212,9.52,9.52,0,0,0,2.048,1.183,1.575,1.575,0,0,0,.612.124A1.534,1.534,0,0,0,7.948,33.4a.763.763,0,0,1,.851-.611,6.723,6.723,0,0,0,1.406,0,.762.762,0,0,1,.851.611,1.535,1.535,0,0,0,1.522,1.282,1.569,1.569,0,0,0,.611-.124,9.466,9.466,0,0,0,2.048-1.183,1.554,1.554,0,0,0,.619-1.211,1.526,1.526,0,0,0-.558-1.215.756.756,0,0,1-.106-1.038,7.041,7.041,0,0,0,.706-1.227.756.756,0,0,1,.959-.424,1.522,1.522,0,0,0,.539.1A1.554,1.554,0,0,0,18.928,27,9.59,9.59,0,0,0,19,25.812,9.427,9.427,0,0,0,18.927,24.621ZM9.5,28.98a3.167,3.167,0,1,1,3.167-3.167A3.171,3.171,0,0,1,9.5,28.98Z" transform="translate(13 -2.939)" fill="#191d1f"/></g></svg>