<svg xmlns="http://www.w3.org/2000/svg" width="45.263" height="43.664" viewBox="0 0 45.263 43.664"><g transform="translate(-9.952 35.089)"><path d="M43.432,13.611A21.71,21.71,0,0,0,2.3,16.419l-1.061-.675A.776.776,0,0,0,.052,16.4V27.261a.776.776,0,0,0,1.193.655l1.06-.675A21.755,21.755,0,0,0,15.132,41.919a24.245,24.245,0,0,0,16.408.021A21.725,21.725,0,0,0,43.432,13.611ZM1.6,25.848V17.812L7.917,21.83Zm37.776,1.79L25.356,21.83,39.38,16.022A17.07,17.07,0,0,1,39.38,27.638ZM24.763,23.264l14.02,5.807a17.179,17.179,0,0,1-8.213,8.213v0Zm-1.434.594,5.808,14.024a16.943,16.943,0,0,1-11.611-.014ZM16.093,37.27a17.174,17.174,0,0,1-8.2-8.2l14.006-5.8ZM24.763,20.4l5.807-14.02a17.179,17.179,0,0,1,8.213,8.213ZM23.329,19.8l-5.8-14.01a16.943,16.943,0,0,1,11.611-.014Zm-1.434.594-14.006-5.8a17.166,17.166,0,0,1,8.2-8.2ZM21.3,21.83l-14.013,5.8a16.9,16.9,0,0,1-.8-3.059l3.285-2.09a.776.776,0,0,0,0-1.31l-3.285-2.09a16.9,16.9,0,0,1,.8-3.059ZM23.329,42A20.218,20.218,0,0,1,3.683,26.364l1.4-.889a18.621,18.621,0,1,0,0-7.289l-1.4-.89A20.169,20.169,0,1,1,23.329,42Z" transform="translate(10 -35.094)" fill="#abc76e" stroke="#abc76e" stroke-width="0.2"/></g></svg>