<svg width="14" height="15" viewBox="0 0 14 15" fill="none" xmlns="http://www.w3.org/2000/svg">
<path d="M12.0151 3.94387C10.2447 3.7592 8.46373 3.66406 6.68807 3.66406C5.63542 3.66406 4.58278 3.72002 3.53014 3.83195L2.4456 3.94387" stroke="white" stroke-linecap="round" stroke-linejoin="round"/>
<path d="M5.3696 3.37837L5.48656 2.64527C5.57162 2.11364 5.63542 1.71631 6.53388 1.71631H7.92677C8.82524 1.71631 8.89435 2.13602 8.9741 2.65087L9.09106 3.37837" stroke="white" stroke-linecap="round" stroke-linejoin="round"/>
<path d="M10.872 5.71143L10.5264 11.3468C10.4679 12.2254 10.4201 12.9081 8.93681 12.9081H5.5237C4.04044 12.9081 3.99259 12.2254 3.93411 11.3468L3.58855 5.71143" stroke="white" stroke-linecap="round" stroke-linejoin="round"/>
<path d="M6.34247 9.83105H8.11282" stroke="white" stroke-linecap="round" stroke-linejoin="round"/>
<path d="M5.90134 7.59229H8.55952" stroke="white" stroke-linecap="round" stroke-linejoin="round"/>
</svg>
