<svg xmlns="http://www.w3.org/2000/svg" width="16" height="16" viewBox="0 0 16 16"><g transform="translate(0 -0.172)"><path d="M176.994,10.378a.728.728,0,0,1-.514-1.242l1.47-1.47a3.487,3.487,0,0,0,1.038-2.5,3.541,3.541,0,0,0-3.537-3.537,3.487,3.487,0,0,0-2.5,1.036L171.483,4.14a.728.728,0,1,1-1.029-1.029l1.47-1.471A4.934,4.934,0,0,1,175.452.176a5,5,0,0,1,4.992,4.992,4.93,4.93,0,0,1-1.468,3.53l-1.468,1.467a.724.724,0,0,1-.514.213Zm0,0" transform="translate(-164.444 -0.004)" fill="#fff"/><path d="M5,180.616A5,5,0,0,1,0,175.624a4.93,4.93,0,0,1,1.468-3.53l1.468-1.467a.728.728,0,0,1,1.029,1.029l-1.47,1.47a3.485,3.485,0,0,0-1.039,2.5A3.541,3.541,0,0,0,5,179.16a3.487,3.487,0,0,0,2.5-1.036l1.472-1.472a.728.728,0,0,1,1.029,1.029l-1.47,1.471A4.934,4.934,0,0,1,5,180.616Zm0,0" transform="translate(-0.004 -164.444)" fill="#fff"/><path d="M259.289,131a.728.728,0,0,1-.514-1.242l1.368-1.368a.728.728,0,0,1,1.029,1.029l-1.368,1.368A.726.726,0,0,1,259.289,131Zm0,0" transform="translate(-249.748 -123.637)" fill="#fff"/><path d="M128.728,261.557a.728.728,0,0,1-.514-1.242l1.368-1.368a.728.728,0,0,1,1.029,1.029l-1.368,1.368A.725.725,0,0,1,128.728,261.557Zm0,0" transform="translate(-123.637 -249.748)" fill="#fff"/><path d="M15.273,16.172a.725.725,0,0,1-.514-.213L.214,1.414A.727.727,0,0,1,1.242.385L15.787,14.931a.727.727,0,0,1-.514,1.242Zm0,0" transform="translate(0)" fill="#fff"/></g></svg>