<svg width="24" height="25" viewBox="0 0 24 25" fill="none" xmlns="http://www.w3.org/2000/svg">
<path d="M14.73 2.30396H9.27002V6.66396H14.73V2.30396Z" fill="#292D32"/>
<path d="M16.23 2.30396V6.66396H21.87C21.36 3.91396 19.33 2.31396 16.23 2.30396Z" fill="#292D32"/>
<path d="M2 8.16406V16.4941C2 20.1341 4.17 22.3041 7.81 22.3041H16.19C19.83 22.3041 22 20.1341 22 16.4941V8.16406H2ZM14.44 16.4841L12.36 17.6841C11.92 17.9341 11.49 18.0641 11.09 18.0641C10.79 18.0641 10.52 17.9941 10.27 17.8541C9.69 17.5241 9.37 16.8441 9.37 15.9641V13.5641C9.37 12.6841 9.69 12.0041 10.27 11.6741C10.85 11.3341 11.59 11.3941 12.36 11.8441L14.44 13.0441C15.21 13.4841 15.63 14.1041 15.63 14.7741C15.63 15.4441 15.2 16.0341 14.44 16.4841Z" fill="#292D32"/>
<path d="M7.77 2.30396C4.67 2.31396 2.64 3.91396 2.13 6.66396H7.77V2.30396Z" fill="#292D32"/>
</svg>
