<svg xmlns="http://www.w3.org/2000/svg" width="60.87" height="60.87" viewBox="0 0 60.87 60.87"><g transform="translate(0)"><g transform="translate(0)"><path d="M60.214,51.953,35.945,3.406a6.16,6.16,0,0,0-11.021,0L.656,51.953a6.161,6.161,0,0,0,5.51,8.917H54.7a6.161,6.161,0,0,0,5.51-8.917ZM55.9,55.448a1.385,1.385,0,0,1-1.2.666H6.166a1.406,1.406,0,0,1-1.257-2.035L29.178,5.532a1.405,1.405,0,0,1,2.514,0L55.96,54.079A1.387,1.387,0,0,1,55.9,55.448Z" transform="translate(0)" fill="#ff6770"/></g><g transform="translate(28.057 21.407)"><path d="M238.378,180.063A2.378,2.378,0,0,0,236,182.441v14.994a2.378,2.378,0,0,0,4.755,0V182.441A2.378,2.378,0,0,0,238.378,180.063Z" transform="translate(-236 -180.063)" fill="#ff6770"/></g><g transform="translate(27.224 43.891)"><circle cx="3.21" cy="3.21" r="3.21" fill="#ff6770"/></g></g></svg>