<svg width="26" height="27" viewBox="0 0 26 27" fill="none" xmlns="http://www.w3.org/2000/svg">
<path d="M13.2544 11.7329C13.5765 11.7329 13.8913 11.8284 14.1591 12.0073C14.4269 12.1863 14.6356 12.4406 14.7589 12.7381C14.8821 13.0357 14.9144 13.3631 14.8515 13.679C14.7887 13.9949 14.6336 14.285 14.4059 14.5128C14.1781 14.7405 13.888 14.8956 13.5721 14.9584C13.2562 15.0212 12.9288 14.989 12.6313 14.8657C12.3337 14.7425 12.0794 14.5338 11.9005 14.266C11.7215 13.9982 11.626 13.6834 11.626 13.3613C11.6265 12.9296 11.7982 12.5157 12.1035 12.2104C12.4088 11.9051 12.8227 11.7334 13.2544 11.7329ZM13.2544 14.1755C13.4154 14.1755 13.5729 14.1278 13.7068 14.0383C13.8407 13.9488 13.945 13.8217 14.0066 13.6729C14.0683 13.5241 14.0844 13.3604 14.053 13.2025C14.0216 13.0445 13.944 12.8994 13.8301 12.7856C13.7163 12.6717 13.5712 12.5942 13.4133 12.5628C13.2553 12.5313 13.0916 12.5475 12.9428 12.6091C12.7941 12.6707 12.6669 12.7751 12.5774 12.909C12.488 13.0429 12.4402 13.2003 12.4402 13.3613C12.4405 13.5772 12.5263 13.7841 12.679 13.9368C12.8316 14.0894 13.0386 14.1752 13.2544 14.1755Z" fill="#565656"/>
<path d="M4.33071 4.43778C5.50031 3.25567 6.89201 2.31636 8.42582 1.67386C9.95963 1.03135 11.6053 0.698316 13.2682 0.693892C14.9312 0.689469 16.5786 1.01374 18.1158 1.64808C19.653 2.28242 21.0497 3.21431 22.2255 4.39018C23.4014 5.56606 24.3333 6.96274 24.9676 8.49994C25.602 10.0371 25.9263 11.6846 25.9218 13.3475C25.9174 15.0104 25.5844 16.6561 24.9419 18.1899C24.2994 19.7237 23.3601 21.1154 22.1779 22.285C21.0083 23.4671 19.6166 24.4064 18.0828 25.0489C16.549 25.6914 14.9034 26.0245 13.2404 26.0289C11.5775 26.0333 9.93007 25.7091 8.39286 25.0747C6.85566 24.4404 5.45898 23.5085 4.28311 22.3326C3.10723 21.1567 2.17534 19.7601 1.541 18.2229C0.906668 16.6857 0.582392 15.0382 0.586815 13.3753C0.59124 11.7124 0.924274 10.0667 1.56678 8.5329C2.20929 6.99909 3.14859 5.60739 4.33071 4.43778ZM4.90624 21.7095C7.12029 23.9235 10.1232 25.1674 13.2543 25.1674C16.3855 25.1674 19.3884 23.9235 21.6024 21.7095C23.8164 19.4954 25.0603 16.4925 25.0603 13.3614C25.0603 10.2303 23.8164 7.22737 21.6024 5.01332C19.3884 2.79927 16.3855 1.55543 13.2543 1.55543C10.1232 1.55543 7.12029 2.79927 4.90624 5.01332C2.6922 7.22737 1.44836 10.2303 1.44836 13.3614C1.44836 16.4925 2.6922 19.4954 4.90624 21.7095Z" fill="#565656"/>
<path d="M13.2543 4.40527C18.1929 4.40527 22.2104 8.42283 22.2104 13.3615C22.2104 18.3001 18.1929 22.3176 13.2543 22.3176C8.31564 22.3176 4.29808 18.3001 4.29808 13.3615C4.29808 8.42283 8.31564 4.40527 13.2543 4.40527ZM6.70099 8.5353C5.91554 9.5969 5.40158 10.8345 5.20388 12.1402H9.37105C9.44239 11.9121 9.53402 11.6909 9.64482 11.4791L6.70099 8.5353ZM12.033 5.31107C10.7273 5.50877 9.48971 6.02273 8.4281 6.80818L11.3719 9.75201C11.5837 9.64121 11.8049 9.54959 12.033 9.47824V5.31107ZM14.4756 5.31107V9.47824C14.7036 9.54959 14.9249 9.64121 15.1366 9.75201L18.0804 6.80818C17.0188 6.02273 15.7813 5.50877 14.4756 5.31107ZM19.8075 8.5353L16.8637 11.4791C16.9745 11.6909 17.0661 11.9121 17.1375 12.1402H21.3047C21.1069 10.8345 20.593 9.5969 19.8075 8.5353ZM19.8075 18.1876C20.593 17.126 21.1069 15.8885 21.3047 14.5828H17.1375C17.0661 14.8108 16.9745 15.0321 16.8637 15.2438L19.8075 18.1876ZM14.4756 21.4118C15.7813 21.2141 17.0188 20.7002 18.0804 19.9147L15.1366 16.9709C14.9249 17.0817 14.7036 17.1733 14.4756 17.2447V21.4118ZM12.033 21.4118V17.2447C11.8049 17.1733 11.5837 17.0817 11.3719 16.9709L8.4281 19.9147C9.48971 20.7002 10.7273 21.2141 12.033 21.4118ZM6.70099 18.1876L9.64482 15.2438C9.53402 15.0321 9.44239 14.8108 9.37105 14.5828H5.20388C5.40158 15.8885 5.91554 17.126 6.70099 18.1876ZM9.68248 13.7686C9.77476 13.7687 9.86426 13.8001 9.93637 13.8577C10.0085 13.9153 10.0589 13.9956 10.0794 14.0856C10.1604 14.4431 10.3017 14.7841 10.4972 15.0942C10.5464 15.1724 10.5675 15.2649 10.5573 15.3567C10.547 15.4485 10.5059 15.5341 10.4407 15.5995L7.21902 18.8207C7.40124 19.0222 7.5935 19.2145 7.79506 19.3967L11.0162 16.175C11.0816 16.1098 11.1672 16.0687 11.259 16.0584C11.3508 16.0482 11.4434 16.0694 11.5216 16.1185C11.8316 16.314 12.1727 16.4553 12.5301 16.5363C12.6201 16.5568 12.7005 16.6073 12.758 16.6794C12.8156 16.7515 12.8471 16.841 12.8472 16.9332V21.4933C12.982 21.4999 13.1177 21.5033 13.2543 21.5034C13.3908 21.5036 13.5265 21.5002 13.6614 21.4933V16.9332C13.6615 16.841 13.6929 16.7515 13.7505 16.6794C13.8081 16.6073 13.8884 16.5568 13.9784 16.5363C14.3359 16.4553 14.6769 16.314 14.987 16.1185C15.0652 16.0694 15.1577 16.0482 15.2495 16.0584C15.3413 16.0687 15.4269 16.1098 15.4923 16.175L18.7135 19.3967C18.915 19.2145 19.1073 19.0222 19.2895 18.8207L16.0678 15.5995C16.0026 15.5341 15.9615 15.4485 15.9513 15.3567C15.941 15.2649 15.9622 15.1724 16.0113 15.0942C16.2068 14.7841 16.3481 14.4431 16.4291 14.0856C16.4496 13.9956 16.5001 13.9153 16.5722 13.8577C16.6443 13.8001 16.7338 13.7687 16.8261 13.7686H21.3861C21.3929 13.6337 21.3963 13.498 21.3963 13.3615C21.3963 13.2249 21.3929 13.0892 21.3861 12.9544H16.8261C16.7338 12.9542 16.6443 12.9228 16.5722 12.8652C16.5001 12.8076 16.4496 12.7273 16.4291 12.6373C16.3481 12.2799 16.2068 11.9388 16.0113 11.6287C15.9622 11.5506 15.941 11.458 15.9513 11.3662C15.9615 11.2744 16.0026 11.1888 16.0678 11.1234L19.2895 7.90226C19.1073 7.70069 18.915 7.50844 18.7135 7.32621L15.4923 10.5479C15.4269 10.6131 15.3413 10.6542 15.2495 10.6645C15.1577 10.6747 15.0652 10.6535 14.987 10.6044C14.6769 10.4089 14.3359 10.2676 13.9784 10.1866C13.8884 10.1661 13.8081 10.1157 13.7505 10.0436C13.6929 9.97146 13.6615 9.88195 13.6614 9.78967V5.22965C13.5265 5.22286 13.3908 5.21947 13.2543 5.21947C13.1177 5.21947 12.982 5.22286 12.8472 5.22965V9.78967C12.8471 9.88195 12.8156 9.97146 12.758 10.0436C12.7005 10.1157 12.6201 10.1661 12.5301 10.1866C12.1727 10.2676 11.8316 10.4089 11.5216 10.6044C11.4434 10.6536 11.3508 10.6748 11.259 10.6645C11.1672 10.6542 11.0816 10.6131 11.0162 10.5479L7.79506 7.32621C7.5935 7.50844 7.40124 7.70069 7.21902 7.90226L10.4407 11.1234C10.5059 11.1888 10.547 11.2744 10.5573 11.3662C10.5675 11.458 10.5464 11.5506 10.4972 11.6287C10.3017 11.9388 10.1604 12.2799 10.0794 12.6373C10.0589 12.7273 10.0085 12.8076 9.93637 12.8652C9.86426 12.9228 9.77476 12.9542 9.68248 12.9544H5.12246C5.11584 13.0892 5.11245 13.2249 5.11228 13.3615C5.11211 13.498 5.11551 13.6337 5.12246 13.7686H9.68248Z" fill="#565656"/>
</svg>
